<?xml version="1.0" encoding="UTF-8" standalone="no"?>
<!DOCTYPE svg PUBLIC "-//W3C//DTD SVG 1.1//EN"
 "http://www.w3.org/Graphics/SVG/1.1/DTD/svg11.dtd">
<!-- Generated by graphviz version 14.1.2 (20260124.0452)
 -->
<!-- Title: Tier1_RenderGraph Pages: 1 -->
<svg width="2298pt" height="1720pt"
 viewBox="0.00 0.00 2298.00 1720.00" xmlns="http://www.w3.org/2000/svg" xmlns:xlink="http://www.w3.org/1999/xlink">
<g id="graph0" class="graph" transform="scale(1 1) rotate(0) translate(36 1683.5)">
<title>Tier1_RenderGraph</title>
<polygon fill="#0d1117" stroke="none" points="-36,36 -36,-1683.5 2262,-1683.5 2262,36 -36,36"/>
<text xml:space="preserve" text-anchor="start" x="919.5" y="-1631.2" font-family="Inter,Helvetica,Arial" font-weight="bold" font-size="14.00" fill="#e6edf3">miki Tier1 RenderGraph — Vulkan 1.4 / D3D12 Main Pipeline</text>
<text xml:space="preserve" text-anchor="start" x="875.25" y="-1620.05" font-family="Inter,Helvetica,Arial" font-size="11.00" fill="#8b949e">88 passes · Task/Mesh/VisBuffer · VSM · GTAO/RTAO · TAA+FSR · LL&#45;OIT · RT · Async Compute</text>
<g id="clust1" class="cluster">
<title>cluster_cpu</title>
<path fill="#161b22" fill-opacity="0.250980" stroke="#30363d" stroke-dasharray="5,2" d="M678,-1532.25C678,-1532.25 822,-1532.25 822,-1532.25 828,-1532.25 834,-1538.25 834,-1544.25 834,-1544.25 834,-1594.5 834,-1594.5 834,-1600.5 828,-1606.5 822,-1606.5 822,-1606.5 678,-1606.5 678,-1606.5 672,-1606.5 666,-1600.5 666,-1594.5 666,-1594.5 666,-1544.25 666,-1544.25 666,-1538.25 672,-1532.25 678,-1532.25"/>
<text xml:space="preserve" text-anchor="middle" x="750" y="-1591.1" font-family="Inter,Helvetica,Arial" font-size="12.00" fill="#c9d1d9">CPU Preparation</text>
</g>
<g id="clust2" class="cluster">
<title>cluster_accel</title>
<path fill="#161b22" fill-opacity="0.250980" stroke="#30363d" stroke-dasharray="5,2" d="M299,-926.5C299,-926.5 435,-926.5 435,-926.5 441,-926.5 447,-932.5 447,-938.5 447,-938.5 447,-988.75 447,-988.75 447,-994.75 441,-1000.75 435,-1000.75 435,-1000.75 299,-1000.75 299,-1000.75 293,-1000.75 287,-994.75 287,-988.75 287,-988.75 287,-938.5 287,-938.5 287,-932.5 293,-926.5 299,-926.5"/>
<text xml:space="preserve" text-anchor="middle" x="367" y="-985.35" font-family="Inter,Helvetica,Arial" font-size="12.00" fill="#c9d1d9">Acceleration Structure (RT)</text>
</g>
<g id="clust3" class="cluster">
<title>cluster_geometry</title>
<path fill="#161b22" fill-opacity="0.250980" stroke="#30363d" stroke-dasharray="5,2" d="M1345,-926.5C1345,-926.5 1672,-926.5 1672,-926.5 1678,-926.5 1684,-932.5 1684,-938.5 1684,-938.5 1684,-1490.5 1684,-1490.5 1684,-1496.5 1678,-1502.5 1672,-1502.5 1672,-1502.5 1345,-1502.5 1345,-1502.5 1339,-1502.5 1333,-1496.5 1333,-1490.5 1333,-1490.5 1333,-938.5 1333,-938.5 1333,-932.5 1339,-926.5 1345,-926.5"/>
<text xml:space="preserve" text-anchor="middle" x="1508.5" y="-1487.1" font-family="Inter,Helvetica,Arial" font-size="12.00" fill="#c9d1d9">Geometry Stage (GPU&#45;Driven)</text>
</g>
<g id="clust4" class="cluster">
<title>cluster_shadow</title>
<path fill="#161b22" fill-opacity="0.250980" stroke="#30363d" stroke-dasharray="5,2" d="M756,-822.5C756,-822.5 1121,-822.5 1121,-822.5 1127,-822.5 1133,-828.5 1133,-834.5 1133,-834.5 1133,-884.75 1133,-884.75 1133,-890.75 1127,-896.75 1121,-896.75 1121,-896.75 756,-896.75 756,-896.75 750,-896.75 744,-890.75 744,-884.75 744,-884.75 744,-834.5 744,-834.5 744,-828.5 750,-822.5 756,-822.5"/>
<text xml:space="preserve" text-anchor="middle" x="938.5" y="-881.35" font-family="Inter,Helvetica,Arial" font-size="12.00" fill="#c9d1d9">Shadow Stage</text>
</g>
<g id="clust5" class="cluster">
<title>cluster_ao</title>
<path fill="#161b22" fill-opacity="0.250980" stroke="#30363d" stroke-dasharray="5,2" d="M1490,-822.5C1490,-822.5 1926,-822.5 1926,-822.5 1932,-822.5 1938,-828.5 1938,-834.5 1938,-834.5 1938,-884.75 1938,-884.75 1938,-890.75 1932,-896.75 1926,-896.75 1926,-896.75 1490,-896.75 1490,-896.75 1484,-896.75 1478,-890.75 1478,-884.75 1478,-884.75 1478,-834.5 1478,-834.5 1478,-828.5 1484,-822.5 1490,-822.5"/>
<text xml:space="preserve" text-anchor="middle" x="1708" y="-881.35" font-family="Inter,Helvetica,Arial" font-size="12.00" fill="#c9d1d9">Ambient Occlusion</text>
</g>
<g id="clust6" class="cluster">
<title>cluster_resolve</title>
<path fill="#161b22" fill-opacity="0.250980" stroke="#30363d" stroke-dasharray="5,2" d="M1222,-736.75C1222,-736.75 1458,-736.75 1458,-736.75 1464,-736.75 1470,-742.75 1470,-748.75 1470,-748.75 1470,-884.75 1470,-884.75 1470,-890.75 1464,-896.75 1458,-896.75 1458,-896.75 1222,-896.75 1222,-896.75 1216,-896.75 1210,-890.75 1210,-884.75 1210,-884.75 1210,-748.75 1210,-748.75 1210,-742.75 1216,-736.75 1222,-736.75"/>
<text xml:space="preserve" text-anchor="middle" x="1340" y="-881.35" font-family="Inter,Helvetica,Arial" font-size="12.00" fill="#c9d1d9">Deferred Resolve</text>
</g>
<g id="clust7" class="cluster">
<title>cluster_rt</title>
<path fill="#161b22" fill-opacity="0.250980" stroke="#30363d" stroke-dasharray="5,2" d="M307,-632.75C307,-632.75 763,-632.75 763,-632.75 769,-632.75 775,-638.75 775,-644.75 775,-644.75 775,-695 775,-695 775,-701 769,-707 763,-707 763,-707 307,-707 307,-707 301,-707 295,-701 295,-695 295,-695 295,-644.75 295,-644.75 295,-638.75 301,-632.75 307,-632.75"/>
<text xml:space="preserve" text-anchor="middle" x="535" y="-691.6" font-family="Inter,Helvetica,Arial" font-size="12.00" fill="#c9d1d9">Ray Tracing (T1 Optional)</text>
</g>
<g id="clust8" class="cluster">
<title>cluster_oit</title>
<path fill="#161b22" fill-opacity="0.250980" stroke="#30363d" stroke-dasharray="5,2" d="M437,-1030.5C437,-1030.5 605,-1030.5 605,-1030.5 611,-1030.5 617,-1036.5 617,-1042.5 617,-1042.5 617,-1196.75 617,-1196.75 617,-1202.75 611,-1208.75 605,-1208.75 605,-1208.75 437,-1208.75 437,-1208.75 431,-1208.75 425,-1202.75 425,-1196.75 425,-1196.75 425,-1042.5 425,-1042.5 425,-1036.5 431,-1030.5 437,-1030.5"/>
<text xml:space="preserve" text-anchor="middle" x="521" y="-1193.35" font-family="Inter,Helvetica,Arial" font-size="12.00" fill="#c9d1d9">Order&#45;Independent Transparency</text>
</g>
<g id="clust9" class="cluster">
<title>cluster_cad</title>
<path fill="#161b22" fill-opacity="0.250980" stroke="#30363d" stroke-dasharray="5,2" d="M42,-1134.5C42,-1134.5 405,-1134.5 405,-1134.5 411,-1134.5 417,-1140.5 417,-1146.5 417,-1146.5 417,-1196.75 417,-1196.75 417,-1202.75 411,-1208.75 405,-1208.75 405,-1208.75 42,-1208.75 42,-1208.75 36,-1208.75 30,-1202.75 30,-1196.75 30,-1196.75 30,-1146.5 30,-1146.5 30,-1140.5 36,-1134.5 42,-1134.5"/>
<text xml:space="preserve" text-anchor="middle" x="223.5" y="-1193.35" font-family="Inter,Helvetica,Arial" font-size="12.00" fill="#c9d1d9">CAD Domain Passes</text>
</g>
<g id="clust10" class="cluster">
<title>cluster_post</title>
<path fill="#161b22" fill-opacity="0.250980" stroke="#30363d" stroke-dasharray="5,2" d="M884,-8C884,-8 1058,-8 1058,-8 1064,-8 1070,-14 1070,-20 1070,-20 1070,-695 1070,-695 1070,-701 1064,-707 1058,-707 1058,-707 884,-707 884,-707 878,-707 872,-701 872,-695 872,-695 872,-20 872,-20 872,-14 878,-8 884,-8"/>
<text xml:space="preserve" text-anchor="middle" x="971" y="-691.6" font-family="Inter,Helvetica,Arial" font-size="12.00" fill="#c9d1d9">Post&#45;Processing Chain</text>
</g>
<g id="clust11" class="cluster">
<title>cluster_overlay</title>
<path fill="#161b22" fill-opacity="0.250980" stroke="#30363d" stroke-dasharray="5,2" d="M637,-926.5C637,-926.5 1313,-926.5 1313,-926.5 1319,-926.5 1325,-932.5 1325,-938.5 1325,-938.5 1325,-1092.75 1325,-1092.75 1325,-1098.75 1319,-1104.75 1313,-1104.75 1313,-1104.75 637,-1104.75 637,-1104.75 631,-1104.75 625,-1098.75 625,-1092.75 625,-1092.75 625,-938.5 625,-938.5 625,-932.5 631,-926.5 637,-926.5"/>
<text xml:space="preserve" text-anchor="middle" x="975" y="-1089.35" font-family="Inter,Helvetica,Arial" font-size="12.00" fill="#c9d1d9">Overlays &amp; Compositor</text>
</g>
<g id="clust12" class="cluster">
<title>cluster_transfer</title>
<path fill="#161b22" fill-opacity="0.250980" stroke="#30363d" stroke-dasharray="5,2" d="M1705,-1238.5C1705,-1238.5 1889,-1238.5 1889,-1238.5 1895,-1238.5 1901,-1244.5 1901,-1250.5 1901,-1250.5 1901,-1300.75 1901,-1300.75 1901,-1306.75 1895,-1312.75 1889,-1312.75 1889,-1312.75 1705,-1312.75 1705,-1312.75 1699,-1312.75 1693,-1306.75 1693,-1300.75 1693,-1300.75 1693,-1250.5 1693,-1250.5 1693,-1244.5 1699,-1238.5 1705,-1238.5"/>
<text xml:space="preserve" text-anchor="middle" x="1797" y="-1297.35" font-family="Inter,Helvetica,Arial" font-size="12.00" fill="#c9d1d9">Transfer Queue (Async DMA)</text>
</g>
<g id="clust13" class="cluster">
<title>cluster_legend</title>
<path fill="#161b22" fill-opacity="0.501961" stroke="#30363d" d="M2032,-736.75C2032,-736.75 2206,-736.75 2206,-736.75 2212,-736.75 2218,-742.75 2218,-748.75 2218,-748.75 2218,-1593.75 2218,-1593.75 2218,-1599.75 2212,-1605.75 2206,-1605.75 2206,-1605.75 2032,-1605.75 2032,-1605.75 2026,-1605.75 2020,-1599.75 2020,-1593.75 2020,-1593.75 2020,-748.75 2020,-748.75 2020,-742.75 2026,-736.75 2032,-736.75"/>
<text xml:space="preserve" text-anchor="middle" x="2119" y="-1591.3" font-family="Inter,Helvetica,Arial" font-size="11.00" fill="#c9d1d9">Legend — Tier1 (Vulkan 1.4 / D3D12)</text>
</g>
<!-- scene_upload -->
<g id="node1" class="node">
<title>scene_upload</title>
<path fill="#238636" stroke="black" stroke-width="1.2" d="M813.76,-1576.25C813.76,-1576.25 686.24,-1576.25 686.24,-1576.25 680.24,-1576.25 674.24,-1570.25 674.24,-1564.25 674.24,-1564.25 674.24,-1552.25 674.24,-1552.25 674.24,-1546.25 680.24,-1540.25 686.24,-1540.25 686.24,-1540.25 813.76,-1540.25 813.76,-1540.25 819.76,-1540.25 825.76,-1546.25 825.76,-1552.25 825.76,-1552.25 825.76,-1564.25 825.76,-1564.25 825.76,-1570.25 819.76,-1576.25 813.76,-1576.25"/>
<text xml:space="preserve" text-anchor="start" x="687" y="-1558.8" font-family="Inter,Helvetica,Arial" font-weight="bold" font-size="11.00" fill="#ffffff">#— SceneBuffer Upload</text>
<text xml:space="preserve" text-anchor="start" x="682.88" y="-1549.7" font-family="Inter,Helvetica,Arial" font-size="9.00" fill="#ffffff">dirty GpuInstance[128B] to SSBO</text>
</g>
<!-- blas_tlas -->
<g id="node2" class="node">
<title>blas_tlas</title>
<path fill="#8957e5" stroke="black" stroke-width="1.2" d="M425.51,-970.5C425.51,-970.5 308.49,-970.5 308.49,-970.5 302.49,-970.5 296.49,-964.5 296.49,-958.5 296.49,-958.5 296.49,-946.5 296.49,-946.5 296.49,-940.5 302.49,-934.5 308.49,-934.5 308.49,-934.5 425.51,-934.5 425.51,-934.5 431.51,-934.5 437.51,-940.5 437.51,-946.5 437.51,-946.5 437.51,-958.5 437.51,-958.5 437.51,-964.5 431.51,-970.5 425.51,-970.5"/>
<text xml:space="preserve" text-anchor="start" x="305.12" y="-953.05" font-family="Inter,Helvetica,Arial" font-weight="bold" font-size="11.00" fill="#ffffff">#— BLAS/TLAS Update</text>
<text xml:space="preserve" text-anchor="start" x="317.88" y="-943.95" font-family="Inter,Helvetica,Arial" font-size="9.00" fill="#ffffff">refit(rigid) / rebuild(topo)</text>
</g>
<!-- scene_upload&#45;&gt;blas_tlas -->
<g id="edge1" class="edge">
<title>scene_upload&#45;&gt;blas_tlas</title>
<path fill="none" stroke="#484f58" d="M673.96,-1554.79C483.29,-1547.61 0,-1522.76 0,-1455.25 0,-1455.25 0,-1455.25 0,-1055.5 0,-996.03 181.17,-969.77 288.93,-959.42"/>
<polygon fill="#484f58" stroke="#484f58" points="288.96,-961.52 294.73,-958.87 288.56,-957.34 288.96,-961.52"/>
<text xml:space="preserve" text-anchor="middle" x="38.62" y="-1261.78" font-family="Inter,Helvetica,Arial" font-size="8.00" fill="#8b949e"> &#160;SceneBuffer SSBO &#160;</text>
</g>
<!-- depth_hiz -->
<g id="node3" class="node">
<title>depth_hiz</title>
<path fill="#1f6feb" stroke="black" stroke-width="1.2" d="M1490.64,-1472.25C1490.64,-1472.25 1353.36,-1472.25 1353.36,-1472.25 1347.36,-1472.25 1341.36,-1466.25 1341.36,-1460.25 1341.36,-1460.25 1341.36,-1448.25 1341.36,-1448.25 1341.36,-1442.25 1347.36,-1436.25 1353.36,-1436.25 1353.36,-1436.25 1490.64,-1436.25 1490.64,-1436.25 1496.64,-1436.25 1502.64,-1442.25 1502.64,-1448.25 1502.64,-1448.25 1502.64,-1460.25 1502.64,-1460.25 1502.64,-1466.25 1496.64,-1472.25 1490.64,-1472.25"/>
<text xml:space="preserve" text-anchor="start" x="1361.62" y="-1454.8" font-family="Inter,Helvetica,Arial" font-weight="bold" font-size="11.00" fill="#ffffff">#1 DepthPrePass + HiZ</text>
<text xml:space="preserve" text-anchor="start" x="1350" y="-1445.7" font-family="Inter,Helvetica,Arial" font-size="9.00" fill="#ffffff">D32F Reverse&#45;Z + HiZ mip pyramid</text>
</g>
<!-- scene_upload&#45;&gt;depth_hiz -->
<g id="edge2" class="edge">
<title>scene_upload&#45;&gt;depth_hiz</title>
<path fill="none" stroke="#484f58" d="M826.11,-1545.7C951.4,-1526.68 1200.43,-1488.88 1333.43,-1468.69"/>
<polygon fill="#484f58" stroke="#484f58" points="1333.74,-1470.77 1339.35,-1467.79 1333.11,-1466.62 1333.74,-1470.77"/>
<text xml:space="preserve" text-anchor="middle" x="1075.02" y="-1512.65" font-family="Inter,Helvetica,Arial" font-size="8.00" fill="#8b949e"> &#160;GpuInstance[] &#160;</text>
</g>
<!-- rtao -->
<g id="node13" class="node">
<title>rtao</title>
<path fill="#8b949e" stroke="black" stroke-width="1.2" stroke-dasharray="5,2" d="M1665.64,-866.5C1665.64,-866.5 1498.36,-866.5 1498.36,-866.5 1492.36,-866.5 1486.36,-860.5 1486.36,-854.5 1486.36,-854.5 1486.36,-842.5 1486.36,-842.5 1486.36,-836.5 1492.36,-830.5 1498.36,-830.5 1498.36,-830.5 1665.64,-830.5 1665.64,-830.5 1671.64,-830.5 1677.64,-836.5 1677.64,-842.5 1677.64,-842.5 1677.64,-854.5 1677.64,-854.5 1677.64,-860.5 1671.64,-866.5 1665.64,-866.5"/>
<text xml:space="preserve" text-anchor="start" x="1556.12" y="-849.05" font-family="Inter,Helvetica,Arial" font-weight="bold" font-size="11.00" fill="#000000">#17 RTAO</text>
<text xml:space="preserve" text-anchor="start" x="1495" y="-839.95" font-family="Inter,Helvetica,Arial" font-size="9.00" fill="#000000">1spp + 8&#45;frame EMA, ray query, &lt;1m range</text>
</g>
<!-- blas_tlas&#45;&gt;rtao -->
<g id="edge3" class="edge">
<title>blas_tlas&#45;&gt;rtao</title>
<path fill="none" stroke="#484f58" d="M438.03,-942.98C488.45,-937.3 557.78,-930.21 619,-926.5 809.21,-914.98 1290.81,-941.66 1476,-896.75 1499.75,-890.99 1524.79,-880.08 1544.56,-870.2"/>
<polygon fill="#484f58" stroke="#484f58" points="1545.32,-872.17 1549.71,-867.58 1543.41,-868.43 1545.32,-872.17"/>
</g>
<!-- rt_reflect -->
<g id="node16" class="node">
<title>rt_reflect</title>
<path fill="#f85149" stroke="black" stroke-width="1.2" d="M441.01,-676.75C441.01,-676.75 314.99,-676.75 314.99,-676.75 308.99,-676.75 302.99,-670.75 302.99,-664.75 302.99,-664.75 302.99,-652.75 302.99,-652.75 302.99,-646.75 308.99,-640.75 314.99,-640.75 314.99,-640.75 441.01,-640.75 441.01,-640.75 447.01,-640.75 453.01,-646.75 453.01,-652.75 453.01,-652.75 453.01,-664.75 453.01,-664.75 453.01,-670.75 447.01,-676.75 441.01,-676.75"/>
<text xml:space="preserve" text-anchor="start" x="328.88" y="-659.3" font-family="Inter,Helvetica,Arial" font-weight="bold" font-size="11.00" fill="#ffffff">#20 RT Reflections</text>
<text xml:space="preserve" text-anchor="start" x="311.62" y="-650.2" font-family="Inter,Helvetica,Arial" font-size="9.00" fill="#ffffff">roughness&lt;0.3, full material eval</text>
</g>
<!-- blas_tlas&#45;&gt;rt_reflect -->
<g id="edge4" class="edge">
<title>blas_tlas&#45;&gt;rt_reflect</title>
<path fill="none" stroke="#484f58" d="M355.92,-934.1C352.71,-928.13 349.63,-921.24 348,-914.5 327.98,-831.67 354.65,-730.34 369.39,-684.44"/>
<polygon fill="#484f58" stroke="#484f58" points="371.39,-685.1 371.27,-678.74 367.4,-683.79 371.39,-685.1"/>
</g>
<!-- rt_shadow -->
<g id="node17" class="node">
<title>rt_shadow</title>
<path fill="#f85149" stroke="black" stroke-width="1.2" d="M755.14,-676.75C755.14,-676.75 632.86,-676.75 632.86,-676.75 626.86,-676.75 620.86,-670.75 620.86,-664.75 620.86,-664.75 620.86,-652.75 620.86,-652.75 620.86,-646.75 626.86,-640.75 632.86,-640.75 632.86,-640.75 755.14,-640.75 755.14,-640.75 761.14,-640.75 767.14,-646.75 767.14,-652.75 767.14,-652.75 767.14,-664.75 767.14,-664.75 767.14,-670.75 761.14,-676.75 755.14,-676.75"/>
<text xml:space="preserve" text-anchor="start" x="650.5" y="-659.3" font-family="Inter,Helvetica,Arial" font-weight="bold" font-size="11.00" fill="#ffffff">#21 RT Shadows</text>
<text xml:space="preserve" text-anchor="start" x="629.5" y="-650.2" font-family="Inter,Helvetica,Arial" font-size="9.00" fill="#ffffff">1spp + temporal, soft penumbra</text>
</g>
<!-- blas_tlas&#45;&gt;rt_shadow -->
<g id="edge5" class="edge">
<title>blas_tlas&#45;&gt;rt_shadow</title>
<path fill="none" stroke="#484f58" d="M377.13,-934.06C397.01,-899.9 439.58,-827.09 444,-822.5 477.69,-787.48 596.33,-716.34 657.27,-680.86"/>
<polygon fill="#484f58" stroke="#484f58" points="658.25,-682.72 662.38,-677.89 656.14,-679.09 658.25,-682.72"/>
</g>
<!-- rt_gi -->
<g id="node18" class="node">
<title>rt_gi</title>
<path fill="#f85149" stroke="black" stroke-width="1.2" d="M584.26,-676.75C584.26,-676.75 489.74,-676.75 489.74,-676.75 483.74,-676.75 477.74,-670.75 477.74,-664.75 477.74,-664.75 477.74,-652.75 477.74,-652.75 477.74,-646.75 483.74,-640.75 489.74,-640.75 489.74,-640.75 584.26,-640.75 584.26,-640.75 590.26,-640.75 596.26,-646.75 596.26,-652.75 596.26,-652.75 596.26,-664.75 596.26,-664.75 596.26,-670.75 590.26,-676.75 584.26,-676.75"/>
<text xml:space="preserve" text-anchor="start" x="511.88" y="-659.3" font-family="Inter,Helvetica,Arial" font-weight="bold" font-size="11.00" fill="#ffffff">#22 RT GI</text>
<text xml:space="preserve" text-anchor="start" x="486.38" y="-650.2" font-family="Inter,Helvetica,Arial" font-size="9.00" fill="#ffffff">half&#45;res, SH probe cache</text>
</g>
<!-- blas_tlas&#45;&gt;rt_gi -->
<g id="edge6" class="edge">
<title>blas_tlas&#45;&gt;rt_gi</title>
<path fill="none" stroke="#484f58" d="M367.31,-934.15C368.83,-895.2 377.19,-799.33 422,-736.75 422.36,-736.24 470.7,-703.96 504.58,-681.36"/>
<polygon fill="#484f58" stroke="#484f58" points="505.64,-683.18 509.47,-678.1 503.31,-679.68 505.64,-683.18"/>
</g>
<!-- gpu_cull -->
<g id="node4" class="node">
<title>gpu_cull</title>
<path fill="#8957e5" stroke="black" stroke-width="1.2" d="M1494.27,-1386.5C1494.27,-1386.5 1357.73,-1386.5 1357.73,-1386.5 1351.73,-1386.5 1345.73,-1380.5 1345.73,-1374.5 1345.73,-1374.5 1345.73,-1362.5 1345.73,-1362.5 1345.73,-1356.5 1351.73,-1350.5 1357.73,-1350.5 1357.73,-1350.5 1494.27,-1350.5 1494.27,-1350.5 1500.27,-1350.5 1506.27,-1356.5 1506.27,-1362.5 1506.27,-1362.5 1506.27,-1374.5 1506.27,-1374.5 1506.27,-1380.5 1500.27,-1386.5 1494.27,-1386.5"/>
<text xml:space="preserve" text-anchor="start" x="1386.25" y="-1369.05" font-family="Inter,Helvetica,Arial" font-weight="bold" font-size="11.00" fill="#ffffff">#2 GPU Culling</text>
<text xml:space="preserve" text-anchor="start" x="1354.38" y="-1359.95" font-family="Inter,Helvetica,Arial" font-size="9.00" fill="#ffffff">frustum + HiZ + LOD + normal cone</text>
</g>
<!-- depth_hiz&#45;&gt;gpu_cull -->
<g id="edge7" class="edge">
<title>depth_hiz&#45;&gt;gpu_cull</title>
<path fill="none" stroke="#484f58" d="M1422.83,-1435.9C1423.4,-1423.88 1424.18,-1407.71 1424.81,-1394.33"/>
<polygon fill="#484f58" stroke="#484f58" points="1426.91,-1394.44 1425.1,-1388.34 1422.72,-1394.24 1426.91,-1394.44"/>
<text xml:space="preserve" text-anchor="middle" x="1450.37" y="-1408.65" font-family="Inter,Helvetica,Arial" font-size="8.00" fill="#8b949e"> &#160;HiZ pyramid &#160;</text>
</g>
<!-- hlr -->
<g id="node21" class="node">
<title>hlr</title>
<path fill="#39d2c0" stroke="black" stroke-width="1.2" d="M396.76,-1178.5C396.76,-1178.5 233.24,-1178.5 233.24,-1178.5 227.24,-1178.5 221.24,-1172.5 221.24,-1166.5 221.24,-1166.5 221.24,-1154.5 221.24,-1154.5 221.24,-1148.5 227.24,-1142.5 233.24,-1142.5 233.24,-1142.5 396.76,-1142.5 396.76,-1142.5 402.76,-1142.5 408.76,-1148.5 408.76,-1154.5 408.76,-1154.5 408.76,-1166.5 408.76,-1166.5 408.76,-1172.5 402.76,-1178.5 396.76,-1178.5"/>
<text xml:space="preserve" text-anchor="start" x="257.62" y="-1161.05" font-family="Inter,Helvetica,Arial" font-weight="bold" font-size="11.00" fill="#000000">#28→#30 HLR 4&#45;stage</text>
<text xml:space="preserve" text-anchor="start" x="229.88" y="-1151.95" font-family="Inter,Helvetica,Arial" font-size="9.00" fill="#000000">classify → visibility → SDF render → dash</text>
</g>
<!-- depth_hiz&#45;&gt;hlr -->
<g id="edge40" class="edge">
<title>depth_hiz&#45;&gt;hlr</title>
<path fill="none" stroke="#484f58" d="M1340.89,-1438.84C1168.35,-1407.02 753.35,-1324.31 419,-1208.75 397.63,-1201.36 374.67,-1191.19 355.77,-1182.17"/>
<polygon fill="#484f58" stroke="#484f58" points="356.69,-1180.28 350.37,-1179.56 354.86,-1184.06 356.69,-1180.28"/>
<text xml:space="preserve" text-anchor="middle" x="866.92" y="-1322.9" font-family="Inter,Helvetica,Arial" font-size="8.00" fill="#8b949e"> &#160;HiZ + normals &#160;</text>
</g>
<!-- section -->
<g id="node22" class="node">
<title>section</title>
<path fill="#39d2c0" stroke="black" stroke-width="1.2" d="M184.14,-1178.5C184.14,-1178.5 49.86,-1178.5 49.86,-1178.5 43.86,-1178.5 37.86,-1172.5 37.86,-1166.5 37.86,-1166.5 37.86,-1154.5 37.86,-1154.5 37.86,-1148.5 43.86,-1142.5 49.86,-1142.5 49.86,-1142.5 184.14,-1142.5 184.14,-1142.5 190.14,-1142.5 196.14,-1148.5 196.14,-1154.5 196.14,-1154.5 196.14,-1166.5 196.14,-1166.5 196.14,-1172.5 190.14,-1178.5 184.14,-1178.5"/>
<text xml:space="preserve" text-anchor="start" x="70.5" y="-1161.05" font-family="Inter,Helvetica,Arial" font-weight="bold" font-size="11.00" fill="#000000">#31 Section Plane</text>
<text xml:space="preserve" text-anchor="start" x="46.5" y="-1151.95" font-family="Inter,Helvetica,Arial" font-size="9.00" fill="#000000">clip + cap + ISO 128 hatch (stencil)</text>
</g>
<!-- depth_hiz&#45;&gt;section -->
<g id="edge39" class="edge">
<title>depth_hiz&#45;&gt;section</title>
<path fill="none" stroke="#484f58" d="M1340.82,-1446.54C1179.45,-1431.95 807.84,-1392.1 505,-1312.75 370.11,-1277.41 337.09,-1263.84 209,-1208.75 190.8,-1200.92 171.19,-1191.06 154.78,-1182.38"/>
<polygon fill="#484f58" stroke="#484f58" points="156.04,-1180.67 149.76,-1179.7 154.06,-1184.38 156.04,-1180.67"/>
<text xml:space="preserve" text-anchor="middle" x="596.99" y="-1322.9" font-family="Inter,Helvetica,Arial" font-size="8.00" fill="#8b949e"> &#160;DepthTarget &#160;</text>
</g>
<!-- light_cluster -->
<g id="node5" class="node">
<title>light_cluster</title>
<path fill="#8957e5" stroke="black" stroke-width="1.2" d="M1664.14,-1282.5C1664.14,-1282.5 1547.86,-1282.5 1547.86,-1282.5 1541.86,-1282.5 1535.86,-1276.5 1535.86,-1270.5 1535.86,-1270.5 1535.86,-1258.5 1535.86,-1258.5 1535.86,-1252.5 1541.86,-1246.5 1547.86,-1246.5 1547.86,-1246.5 1664.14,-1246.5 1664.14,-1246.5 1670.14,-1246.5 1676.14,-1252.5 1676.14,-1258.5 1676.14,-1258.5 1676.14,-1270.5 1676.14,-1270.5 1676.14,-1276.5 1670.14,-1282.5 1664.14,-1282.5"/>
<text xml:space="preserve" text-anchor="start" x="1544.5" y="-1265.05" font-family="Inter,Helvetica,Arial" font-weight="bold" font-size="11.00" fill="#ffffff">#3 Light Cluster Assign</text>
<text xml:space="preserve" text-anchor="start" x="1551.25" y="-1255.95" font-family="Inter,Helvetica,Arial" font-size="9.00" fill="#ffffff">3D froxel grid, ≤4096 lights</text>
</g>
<!-- gpu_cull&#45;&gt;light_cluster -->
<g id="edge8" class="edge">
<title>gpu_cull&#45;&gt;light_cluster</title>
<path fill="none" stroke="#484f58" d="M1457.03,-1350.02C1476.08,-1339.29 1500.96,-1325.24 1523,-1312.75 1538.01,-1304.24 1554.53,-1294.84 1568.86,-1286.68"/>
<polygon fill="#484f58" stroke="#484f58" points="1569.78,-1288.57 1573.96,-1283.78 1567.7,-1284.92 1569.78,-1288.57"/>
<text xml:space="preserve" text-anchor="middle" x="1527.76" y="-1322.9" font-family="Inter,Helvetica,Arial" font-size="8.00" fill="#8b949e"> &#160;visible list &#160;</text>
</g>
<!-- macro_bin -->
<g id="node6" class="node">
<title>macro_bin</title>
<path fill="#8957e5" stroke="black" stroke-width="1.2" d="M1498.77,-1282.5C1498.77,-1282.5 1353.23,-1282.5 1353.23,-1282.5 1347.23,-1282.5 1341.23,-1276.5 1341.23,-1270.5 1341.23,-1270.5 1341.23,-1258.5 1341.23,-1258.5 1341.23,-1252.5 1347.23,-1246.5 1353.23,-1246.5 1353.23,-1246.5 1498.77,-1246.5 1498.77,-1246.5 1504.77,-1246.5 1510.77,-1252.5 1510.77,-1258.5 1510.77,-1258.5 1510.77,-1270.5 1510.77,-1270.5 1510.77,-1276.5 1504.77,-1282.5 1498.77,-1282.5"/>
<text xml:space="preserve" text-anchor="start" x="1379.88" y="-1265.05" font-family="Inter,Helvetica,Arial" font-weight="bold" font-size="11.00" fill="#ffffff">#4 Macro&#45;Binning</text>
<text xml:space="preserve" text-anchor="start" x="1349.88" y="-1255.95" font-family="Inter,Helvetica,Arial" font-size="9.00" fill="#ffffff">3 buckets: Opaque/Transparent/Edge</text>
</g>
<!-- gpu_cull&#45;&gt;macro_bin -->
<g id="edge9" class="edge">
<title>gpu_cull&#45;&gt;macro_bin</title>
<path fill="none" stroke="#484f58" d="M1426,-1350.2C1426,-1333.64 1426,-1308.5 1426,-1289.91"/>
<polygon fill="#484f58" stroke="#484f58" points="1428.1,-1290.4 1426,-1284.4 1423.9,-1290.4 1428.1,-1290.4"/>
<text xml:space="preserve" text-anchor="middle" x="1446.62" y="-1322.9" font-family="Inter,Helvetica,Arial" font-size="8.00" fill="#8b949e"> &#160;visible list &#160;</text>
</g>
<!-- deferred -->
<g id="node14" class="node">
<title>deferred</title>
<path fill="#8957e5" stroke="black" stroke-width="1.2" d="M1449.52,-780.75C1449.52,-780.75 1230.48,-780.75 1230.48,-780.75 1224.48,-780.75 1218.48,-774.75 1218.48,-768.75 1218.48,-768.75 1218.48,-756.75 1218.48,-756.75 1218.48,-750.75 1224.48,-744.75 1230.48,-744.75 1230.48,-744.75 1449.52,-744.75 1449.52,-744.75 1455.52,-744.75 1461.52,-750.75 1461.52,-756.75 1461.52,-756.75 1461.52,-768.75 1461.52,-768.75 1461.52,-774.75 1455.52,-780.75 1449.52,-780.75"/>
<text xml:space="preserve" text-anchor="start" x="1284.12" y="-763.3" font-family="Inter,Helvetica,Arial" font-weight="bold" font-size="11.00" fill="#ffffff">#18 Deferred Resolve</text>
<text xml:space="preserve" text-anchor="start" x="1227.12" y="-754.2" font-family="Inter,Helvetica,Arial" font-size="9.00" fill="#ffffff">GBuffer + Clusters + IBL + VSM + AO → HDR RGBA16F</text>
</g>
<!-- light_cluster&#45;&gt;deferred -->
<g id="edge25" class="edge">
<title>light_cluster&#45;&gt;deferred</title>
<path fill="none" stroke="#484f58" d="M1658.39,-1245.99C1667.84,-1243.21 1677.66,-1240.58 1687,-1238.5 1813.4,-1210.37 1968,-1290.99 1968,-1161.5 1968,-1161.5 1968,-1161.5 1968,-847.5 1968,-832.1 1957.86,-829.22 1944,-822.5 1862.98,-783.23 1620.93,-770.21 1468.97,-765.89"/>
<polygon fill="#484f58" stroke="#484f58" points="1469.37,-763.8 1463.32,-765.73 1469.26,-768 1469.37,-763.8"/>
<text xml:space="preserve" text-anchor="middle" x="1990.12" y="-1010.9" font-family="Inter,Helvetica,Arial" font-size="8.00" fill="#8b949e"> &#160;froxel grid &#160;</text>
</g>
<!-- task_mesh -->
<g id="node7" class="node">
<title>task_mesh</title>
<path fill="#1f6feb" stroke="black" stroke-width="1.2" d="M1531.27,-1178.5C1531.27,-1178.5 1352.73,-1178.5 1352.73,-1178.5 1346.73,-1178.5 1340.73,-1172.5 1340.73,-1166.5 1340.73,-1166.5 1340.73,-1154.5 1340.73,-1154.5 1340.73,-1148.5 1346.73,-1142.5 1352.73,-1142.5 1352.73,-1142.5 1531.27,-1142.5 1531.27,-1142.5 1537.27,-1142.5 1543.27,-1148.5 1543.27,-1154.5 1543.27,-1154.5 1543.27,-1166.5 1543.27,-1166.5 1543.27,-1172.5 1537.27,-1178.5 1531.27,-1178.5"/>
<text xml:space="preserve" text-anchor="start" x="1349.38" y="-1161.05" font-family="Inter,Helvetica,Arial" font-weight="bold" font-size="11.00" fill="#ffffff">#5→#6→#9 Task→Mesh→VisBuffer</text>
<text xml:space="preserve" text-anchor="start" x="1371.88" y="-1151.95" font-family="Inter,Helvetica,Arial" font-size="9.00" fill="#ffffff">1 PSO, 1 draw call, R32G32_UINT</text>
</g>
<!-- macro_bin&#45;&gt;task_mesh -->
<g id="edge10" class="edge">
<title>macro_bin&#45;&gt;task_mesh</title>
<path fill="none" stroke="#484f58" d="M1428.71,-1246.2C1431.31,-1229.64 1435.25,-1204.5 1438.17,-1185.91"/>
<polygon fill="#484f58" stroke="#484f58" points="1440.18,-1186.64 1439.04,-1180.38 1436.03,-1185.99 1440.18,-1186.64"/>
<text xml:space="preserve" text-anchor="middle" x="1463.79" y="-1218.9" font-family="Inter,Helvetica,Arial" font-size="8.00" fill="#8b949e"> &#160;opaque bucket &#160;</text>
</g>
<!-- oit_insert -->
<g id="node19" class="node">
<title>oit_insert</title>
<path fill="#d29922" stroke="black" stroke-width="1.2" d="M589.01,-1178.5C589.01,-1178.5 468.99,-1178.5 468.99,-1178.5 462.99,-1178.5 456.99,-1172.5 456.99,-1166.5 456.99,-1166.5 456.99,-1154.5 456.99,-1154.5 456.99,-1148.5 462.99,-1142.5 468.99,-1142.5 468.99,-1142.5 589.01,-1142.5 589.01,-1142.5 595.01,-1142.5 601.01,-1148.5 601.01,-1154.5 601.01,-1154.5 601.01,-1166.5 601.01,-1166.5 601.01,-1172.5 595.01,-1178.5 589.01,-1178.5"/>
<text xml:space="preserve" text-anchor="start" x="484.38" y="-1161.05" font-family="Inter,Helvetica,Arial" font-weight="bold" font-size="11.00" fill="#000000">#25 LL&#45;OIT Insert</text>
<text xml:space="preserve" text-anchor="start" x="465.62" y="-1151.95" font-family="Inter,Helvetica,Arial" font-size="9.00" fill="#000000">per&#45;pixel linked list, 16M nodes</text>
</g>
<!-- macro_bin&#45;&gt;oit_insert -->
<g id="edge11" class="edge">
<title>macro_bin&#45;&gt;oit_insert</title>
<path fill="none" stroke="#484f58" d="M1340.8,-1253.81C1167.79,-1234.14 777.46,-1189.75 608.95,-1170.59"/>
<polygon fill="#484f58" stroke="#484f58" points="609.28,-1168.52 603.08,-1169.92 608.81,-1172.69 609.28,-1168.52"/>
<text xml:space="preserve" text-anchor="middle" x="1122.1" y="-1218.9" font-family="Inter,Helvetica,Arial" font-size="8.00" fill="#8b949e"> &#160;transparent bucket &#160;</text>
</g>
<!-- macro_bin&#45;&gt;hlr -->
<g id="edge12" class="edge">
<title>macro_bin&#45;&gt;hlr</title>
<path fill="none" stroke="#484f58" d="M1340.78,-1256.23C1214.34,-1245.73 969.53,-1226.51 761,-1216.75 723.03,-1214.97 456.05,-1217.23 419,-1208.75 395.48,-1203.37 370.83,-1192.43 351.43,-1182.43"/>
<polygon fill="#484f58" stroke="#484f58" points="352.43,-1180.59 346.14,-1179.65 350.47,-1184.3 352.43,-1180.59"/>
<text xml:space="preserve" text-anchor="middle" x="951.59" y="-1218.9" font-family="Inter,Helvetica,Arial" font-size="8.00" fill="#8b949e"> &#160;edge bucket &#160;</text>
</g>
<!-- sw_raster -->
<g id="node8" class="node">
<title>sw_raster</title>
<path fill="#8b949e" stroke="black" stroke-width="1.2" stroke-dasharray="5,2" d="M1638.89,-1074.5C1638.89,-1074.5 1503.11,-1074.5 1503.11,-1074.5 1497.11,-1074.5 1491.11,-1068.5 1491.11,-1062.5 1491.11,-1062.5 1491.11,-1050.5 1491.11,-1050.5 1491.11,-1044.5 1497.11,-1038.5 1503.11,-1038.5 1503.11,-1038.5 1638.89,-1038.5 1638.89,-1038.5 1644.89,-1038.5 1650.89,-1044.5 1650.89,-1050.5 1650.89,-1050.5 1650.89,-1062.5 1650.89,-1062.5 1650.89,-1068.5 1644.89,-1074.5 1638.89,-1074.5"/>
<text xml:space="preserve" text-anchor="start" x="1526.38" y="-1057.05" font-family="Inter,Helvetica,Arial" font-weight="bold" font-size="11.00" fill="#000000">#7 SW Rasterizer</text>
<text xml:space="preserve" text-anchor="start" x="1499.75" y="-1047.95" font-family="Inter,Helvetica,Arial" font-size="9.00" fill="#000000">small tri &lt;4px² → uint64 atomicMax</text>
</g>
<!-- task_mesh&#45;&gt;sw_raster -->
<g id="edge13" class="edge">
<title>task_mesh&#45;&gt;sw_raster</title>
<path fill="none" stroke="#8b949e" stroke-dasharray="5,2" d="M1464.18,-1141.97C1486.09,-1124.64 1519.68,-1098.08 1543.33,-1079.38"/>
<polygon fill="#8b949e" stroke="#8b949e" points="1544.52,-1081.11 1547.93,-1075.74 1541.92,-1077.82 1544.52,-1081.11"/>
</g>
<!-- mat_resolve -->
<g id="node9" class="node">
<title>mat_resolve</title>
<path fill="#8957e5" stroke="black" stroke-width="1.2" d="M1541.14,-970.5C1541.14,-970.5 1352.86,-970.5 1352.86,-970.5 1346.86,-970.5 1340.86,-964.5 1340.86,-958.5 1340.86,-958.5 1340.86,-946.5 1340.86,-946.5 1340.86,-940.5 1346.86,-934.5 1352.86,-934.5 1352.86,-934.5 1541.14,-934.5 1541.14,-934.5 1547.14,-934.5 1553.14,-940.5 1553.14,-946.5 1553.14,-946.5 1553.14,-958.5 1553.14,-958.5 1553.14,-964.5 1547.14,-970.5 1541.14,-970.5"/>
<text xml:space="preserve" text-anchor="start" x="1393.38" y="-953.05" font-family="Inter,Helvetica,Arial" font-weight="bold" font-size="11.00" fill="#ffffff">#10 Material Resolve</text>
<text xml:space="preserve" text-anchor="start" x="1349.5" y="-943.95" font-family="Inter,Helvetica,Arial" font-size="9.00" fill="#ffffff">tile 16×16: BDA fetch → DSPBR → GBuffer MRT</text>
</g>
<!-- task_mesh&#45;&gt;mat_resolve -->
<g id="edge14" class="edge">
<title>task_mesh&#45;&gt;mat_resolve</title>
<path fill="none" stroke="#484f58" d="M1426.55,-1142.14C1418.58,-1132 1409.67,-1118.53 1405.5,-1104.75 1395.94,-1073.17 1397.43,-1062.5 1405.5,-1030.5 1410.38,-1011.17 1421.16,-991.42 1430.51,-976.77"/>
<polygon fill="#484f58" stroke="#484f58" points="1432.05,-978.25 1433.58,-972.08 1428.54,-975.95 1432.05,-978.25"/>
<text xml:space="preserve" text-anchor="middle" x="1442.25" y="-1053.78" font-family="Inter,Helvetica,Arial" font-size="8.00" fill="#8b949e"> &#160;VisBuffer R32G32 &#160;</text>
</g>
<!-- sw_raster&#45;&gt;mat_resolve -->
<g id="edge15" class="edge">
<title>sw_raster&#45;&gt;mat_resolve</title>
<path fill="none" stroke="#8b949e" stroke-dasharray="5,2" d="M1549.68,-1037.97C1528.62,-1020.64 1496.33,-994.08 1473.6,-975.38"/>
<polygon fill="#8b949e" stroke="#8b949e" points="1475.17,-973.96 1469.21,-971.77 1472.51,-977.2 1475.17,-973.96"/>
</g>
<!-- vsm -->
<g id="node10" class="node">
<title>vsm</title>
<path fill="#1f6feb" stroke="black" stroke-width="1.2" d="M929.89,-866.5C929.89,-866.5 764.11,-866.5 764.11,-866.5 758.11,-866.5 752.11,-860.5 752.11,-854.5 752.11,-854.5 752.11,-842.5 752.11,-842.5 752.11,-836.5 758.11,-830.5 764.11,-830.5 764.11,-830.5 929.89,-830.5 929.89,-830.5 935.89,-830.5 941.89,-836.5 941.89,-842.5 941.89,-842.5 941.89,-854.5 941.89,-854.5 941.89,-860.5 935.89,-866.5 929.89,-866.5"/>
<text xml:space="preserve" text-anchor="start" x="803.88" y="-849.05" font-family="Inter,Helvetica,Arial" font-weight="bold" font-size="11.00" fill="#ffffff">#12 VSM Render</text>
<text xml:space="preserve" text-anchor="start" x="760.75" y="-839.95" font-family="Inter,Helvetica,Arial" font-size="9.00" fill="#ffffff">16K² virtual, dirty pages only, Mesh shader</text>
</g>
<!-- mat_resolve&#45;&gt;vsm -->
<g id="edge16" class="edge">
<title>mat_resolve&#45;&gt;vsm</title>
<path fill="none" stroke="#484f58" d="M1374.94,-933.94C1360.46,-930.99 1345.31,-928.3 1331,-926.5 1164.24,-905.51 1112.16,-953.63 954,-896.75 932.46,-889 909.15,-878.92 889.8,-870.06"/>
<polygon fill="#484f58" stroke="#484f58" points="890.83,-868.22 884.5,-867.61 889.07,-872.03 890.83,-868.22"/>
<text xml:space="preserve" text-anchor="middle" x="1036.74" y="-906.9" font-family="Inter,Helvetica,Arial" font-size="8.00" fill="#8b949e"> &#160;GBuffer.Depth &#160;</text>
</g>
<!-- shadow_atlas -->
<g id="node11" class="node">
<title>shadow_atlas</title>
<path fill="#1f6feb" stroke="black" stroke-width="1.2" d="M1113.14,-866.5C1113.14,-866.5 978.86,-866.5 978.86,-866.5 972.86,-866.5 966.86,-860.5 966.86,-854.5 966.86,-854.5 966.86,-842.5 966.86,-842.5 966.86,-836.5 972.86,-830.5 978.86,-830.5 978.86,-830.5 1113.14,-830.5 1113.14,-830.5 1119.14,-830.5 1125.14,-836.5 1125.14,-842.5 1125.14,-842.5 1125.14,-854.5 1125.14,-854.5 1125.14,-860.5 1119.14,-866.5 1113.14,-866.5"/>
<text xml:space="preserve" text-anchor="start" x="999.5" y="-849.05" font-family="Inter,Helvetica,Arial" font-weight="bold" font-size="11.00" fill="#ffffff">#14 Shadow Atlas</text>
<text xml:space="preserve" text-anchor="start" x="975.5" y="-839.95" font-family="Inter,Helvetica,Arial" font-size="9.00" fill="#ffffff">point/spot LRU tile atlas, ≤32 lights</text>
</g>
<!-- mat_resolve&#45;&gt;shadow_atlas -->
<g id="edge17" class="edge">
<title>mat_resolve&#45;&gt;shadow_atlas</title>
<path fill="none" stroke="#484f58" d="M1374.3,-933.96C1360.01,-931.04 1345.09,-928.37 1331,-926.5 1305.08,-923.07 1119.15,-926.64 1096,-914.5 1079.05,-905.61 1066.12,-888.14 1057.65,-873.54"/>
<polygon fill="#484f58" stroke="#484f58" points="1059.56,-872.64 1054.81,-868.41 1055.88,-874.67 1059.56,-872.64"/>
<text xml:space="preserve" text-anchor="middle" x="1126" y="-906.9" font-family="Inter,Helvetica,Arial" font-size="8.00" fill="#8b949e"> &#160;GBuffer.Depth &#160;</text>
</g>
<!-- gtao -->
<g id="node12" class="node">
<title>gtao</title>
<path fill="#8957e5" stroke="black" stroke-width="1.2" d="M1917.64,-866.5C1917.64,-866.5 1714.36,-866.5 1714.36,-866.5 1708.36,-866.5 1702.36,-860.5 1702.36,-854.5 1702.36,-854.5 1702.36,-842.5 1702.36,-842.5 1702.36,-836.5 1708.36,-830.5 1714.36,-830.5 1714.36,-830.5 1917.64,-830.5 1917.64,-830.5 1923.64,-830.5 1929.64,-836.5 1929.64,-842.5 1929.64,-842.5 1929.64,-854.5 1929.64,-854.5 1929.64,-860.5 1923.64,-866.5 1917.64,-866.5"/>
<text xml:space="preserve" text-anchor="start" x="1790.12" y="-849.05" font-family="Inter,Helvetica,Arial" font-weight="bold" font-size="11.00" fill="#ffffff">#15 GTAO</text>
<text xml:space="preserve" text-anchor="start" x="1711" y="-839.95" font-family="Inter,Helvetica,Arial" font-size="9.00" fill="#ffffff">half&#45;res, 8 dir × 2 horizon, async compute candidate</text>
</g>
<!-- mat_resolve&#45;&gt;gtao -->
<g id="edge18" class="edge">
<title>mat_resolve&#45;&gt;gtao</title>
<path fill="none" stroke="#484f58" d="M1538.64,-933.95C1584.48,-924.39 1640.59,-911.51 1690,-896.75 1715.66,-889.09 1743.61,-878.81 1766.65,-869.8"/>
<polygon fill="#484f58" stroke="#484f58" points="1767.41,-871.76 1772.22,-867.6 1765.87,-867.85 1767.41,-871.76"/>
<text xml:space="preserve" text-anchor="middle" x="1705.04" y="-906.9" font-family="Inter,Helvetica,Arial" font-size="8.00" fill="#8b949e"> &#160;GBuffer.Depth (half&#45;res) &#160;</text>
</g>
<!-- mat_resolve&#45;&gt;rtao -->
<g id="edge19" class="edge">
<title>mat_resolve&#45;&gt;rtao</title>
<path fill="none" stroke="#484f58" stroke-dasharray="5,2" d="M1470.21,-933.97C1493.24,-916.56 1528.59,-889.86 1553.35,-871.14"/>
<polygon fill="#484f58" stroke="#484f58" points="1554.37,-873.01 1557.89,-867.72 1551.83,-869.66 1554.37,-873.01"/>
<text xml:space="preserve" text-anchor="middle" x="1539.42" y="-906.9" font-family="Inter,Helvetica,Arial" font-size="8.00" fill="#8b949e"> &#160;GBuffer + TLAS &#160;</text>
</g>
<!-- mat_resolve&#45;&gt;deferred -->
<g id="edge20" class="edge">
<title>mat_resolve&#45;&gt;deferred</title>
<path fill="none" stroke="#484f58" d="M1365.89,-933.94C1354.19,-931.43 1342.29,-928.89 1331,-926.5 1267.38,-913.04 1228.79,-947.19 1187.75,-896.75 1166.92,-871.15 1169.08,-849.71 1187.75,-822.5 1199.72,-805.05 1217.67,-792.78 1237.08,-784.16"/>
<polygon fill="#484f58" stroke="#484f58" points="1237.89,-786.1 1242.61,-781.84 1236.26,-782.22 1237.89,-786.1"/>
<text xml:space="preserve" text-anchor="middle" x="1215.88" y="-845.77" font-family="Inter,Helvetica,Arial" font-size="8.00" fill="#8b949e"> &#160;GBuffer MRT &#160;</text>
</g>
<!-- vsm&#45;&gt;deferred -->
<g id="edge21" class="edge">
<title>vsm&#45;&gt;deferred</title>
<path fill="none" stroke="#484f58" d="M906.72,-829.99C941.97,-820.2 987.6,-808.45 1028.75,-800.75 1088.25,-789.61 1154.81,-781.17 1211.06,-775.18"/>
<polygon fill="#484f58" stroke="#484f58" points="1210.97,-777.3 1216.72,-774.58 1210.53,-773.12 1210.97,-777.3"/>
<text xml:space="preserve" text-anchor="middle" x="1053.88" y="-802.9" font-family="Inter,Helvetica,Arial" font-size="8.00" fill="#8b949e"> &#160;VSM pages &#160;</text>
</g>
<!-- shadow_atlas&#45;&gt;deferred -->
<g id="edge22" class="edge">
<title>shadow_atlas&#45;&gt;deferred</title>
<path fill="none" stroke="#484f58" d="M1061.45,-830.06C1071.53,-819.84 1085.55,-807.63 1100.5,-800.75 1134.54,-785.09 1173.89,-775.85 1210.72,-770.45"/>
<polygon fill="#484f58" stroke="#484f58" points="1210.9,-772.55 1216.55,-769.64 1210.32,-768.39 1210.9,-772.55"/>
<text xml:space="preserve" text-anchor="middle" x="1128.25" y="-802.9" font-family="Inter,Helvetica,Arial" font-size="8.00" fill="#8b949e"> &#160;shadow atlas &#160;</text>
</g>
<!-- gtao&#45;&gt;deferred -->
<g id="edge23" class="edge">
<title>gtao&#45;&gt;deferred</title>
<path fill="none" stroke="#484f58" d="M1729.31,-829.95C1716.15,-827.39 1702.72,-824.83 1690,-822.5 1612.52,-808.31 1525.14,-793.65 1457.07,-782.51"/>
<polygon fill="#484f58" stroke="#484f58" points="1457.46,-780.45 1451.2,-781.55 1456.78,-784.59 1457.46,-780.45"/>
<text xml:space="preserve" text-anchor="middle" x="1641.19" y="-802.9" font-family="Inter,Helvetica,Arial" font-size="8.00" fill="#8b949e"> &#160;AO buffer R8 &#160;</text>
</g>
<!-- rtao&#45;&gt;deferred -->
<g id="edge24" class="edge">
<title>rtao&#45;&gt;deferred</title>
<path fill="none" stroke="#484f58" stroke-dasharray="5,2" d="M1531.27,-829.94C1492.23,-816.43 1438.24,-797.75 1397.58,-783.68"/>
<polygon fill="#484f58" stroke="#484f58" points="1398.45,-781.76 1392.09,-781.78 1397.08,-785.73 1398.45,-781.76"/>
<text xml:space="preserve" text-anchor="middle" x="1496.01" y="-802.9" font-family="Inter,Helvetica,Arial" font-size="8.00" fill="#8b949e"> &#160;AO buffer R8 &#160;</text>
</g>
<!-- deferred&#45;&gt;rt_reflect -->
<g id="edge27" class="edge">
<title>deferred&#45;&gt;rt_reflect</title>
<path fill="none" stroke="#484f58" stroke-dasharray="5,2" d="M1218,-758.76C1070.79,-754.45 815.87,-744.69 598,-724.75 538.61,-719.32 521.7,-725.48 465,-707 445.96,-700.79 426.22,-690.45 410.37,-681.01"/>
<polygon fill="#484f58" stroke="#484f58" points="411.79,-679.42 405.57,-678.1 409.61,-683.01 411.79,-679.42"/>
<text xml:space="preserve" text-anchor="middle" x="611.5" y="-717.15" font-family="Inter,Helvetica,Arial" font-size="8.00" fill="#8b949e"> &#160;HDR &#160;</text>
</g>
<!-- deferred&#45;&gt;rt_shadow -->
<g id="edge28" class="edge">
<title>deferred&#45;&gt;rt_shadow</title>
<path fill="none" stroke="#484f58" stroke-dasharray="5,2" d="M1217.97,-758.43C1060.49,-753.45 801.8,-742.67 761.25,-724.75 740.8,-715.71 722.89,-697.59 710.7,-682.77"/>
<polygon fill="#484f58" stroke="#484f58" points="712.49,-681.64 707.11,-678.25 709.2,-684.25 712.49,-681.64"/>
<text xml:space="preserve" text-anchor="middle" x="779.62" y="-717.15" font-family="Inter,Helvetica,Arial" font-size="8.00" fill="#8b949e"> &#160;GBuffer &#160;</text>
</g>
<!-- deferred&#45;&gt;rt_gi -->
<g id="edge29" class="edge">
<title>deferred&#45;&gt;rt_gi</title>
<path fill="none" stroke="#484f58" stroke-dasharray="5,2" d="M1218.12,-759.23C1089.65,-755.51 881.6,-746.46 703.25,-724.75 660.5,-719.55 647.9,-723.2 608,-707 592.56,-700.73 576.96,-690.84 564.34,-681.72"/>
<polygon fill="#484f58" stroke="#484f58" points="565.69,-680.1 559.62,-678.22 563.19,-683.48 565.69,-680.1"/>
<text xml:space="preserve" text-anchor="middle" x="721.62" y="-717.15" font-family="Inter,Helvetica,Arial" font-size="8.00" fill="#8b949e"> &#160;GBuffer &#160;</text>
</g>
<!-- ssr -->
<g id="node23" class="node">
<title>ssr</title>
<path fill="#8b949e" stroke="black" stroke-width="1.2" stroke-dasharray="5,2" d="M1049.52,-676.75C1049.52,-676.75 920.49,-676.75 920.49,-676.75 914.49,-676.75 908.49,-670.75 908.49,-664.75 908.49,-664.75 908.49,-652.75 908.49,-652.75 908.49,-646.75 914.49,-640.75 920.49,-640.75 920.49,-640.75 1049.52,-640.75 1049.52,-640.75 1055.52,-640.75 1061.52,-646.75 1061.52,-652.75 1061.52,-652.75 1061.52,-664.75 1061.52,-664.75 1061.52,-670.75 1055.52,-676.75 1049.52,-676.75"/>
<text xml:space="preserve" text-anchor="start" x="962.88" y="-659.3" font-family="Inter,Helvetica,Arial" font-weight="bold" font-size="11.00" fill="#000000">#48 SSR</text>
<text xml:space="preserve" text-anchor="start" x="917.12" y="-650.2" font-family="Inter,Helvetica,Arial" font-size="9.00" fill="#000000">Hi&#45;Z ray march, half&#45;res, temporal</text>
</g>
<!-- deferred&#45;&gt;ssr -->
<g id="edge30" class="edge">
<title>deferred&#45;&gt;ssr</title>
<path fill="none" stroke="#484f58" d="M1278.97,-744.22C1216.14,-726.16 1118.44,-698.09 1053.13,-679.32"/>
<polygon fill="#484f58" stroke="#484f58" points="1053.92,-677.37 1047.58,-677.73 1052.76,-681.4 1053.92,-677.37"/>
<text xml:space="preserve" text-anchor="middle" x="1251.61" y="-717.15" font-family="Inter,Helvetica,Arial" font-size="8.00" fill="#8b949e"> &#160;HDR + depth + normals &#160;</text>
</g>
<!-- bloom -->
<g id="node24" class="node">
<title>bloom</title>
<path fill="#bc8cff" stroke="black" stroke-width="1.2" d="M996.14,-599.75C996.14,-599.75 891.86,-599.75 891.86,-599.75 885.86,-599.75 879.86,-593.75 879.86,-587.75 879.86,-587.75 879.86,-575.75 879.86,-575.75 879.86,-569.75 885.86,-563.75 891.86,-563.75 891.86,-563.75 996.14,-563.75 996.14,-563.75 1002.14,-563.75 1008.14,-569.75 1008.14,-575.75 1008.14,-575.75 1008.14,-587.75 1008.14,-587.75 1008.14,-593.75 1002.14,-599.75 996.14,-599.75"/>
<text xml:space="preserve" text-anchor="start" x="916.25" y="-582.3" font-family="Inter,Helvetica,Arial" font-weight="bold" font-size="11.00" fill="#000000">#49 Bloom</text>
<text xml:space="preserve" text-anchor="start" x="888.5" y="-573.2" font-family="Inter,Helvetica,Arial" font-size="9.00" fill="#000000">6&#45;level Gaussian, lum &gt; 1.0</text>
</g>
<!-- deferred&#45;&gt;bloom -->
<g id="edge31" class="edge">
<title>deferred&#45;&gt;bloom</title>
<path fill="none" stroke="#484f58" d="M1218.01,-757.06C1075.41,-750.3 855.5,-735.38 830,-707 807.95,-682.45 811.95,-660.38 830,-632.75 840.02,-617.42 855.9,-606.76 872.66,-599.35"/>
<polygon fill="#484f58" stroke="#484f58" points="873.23,-601.39 877.97,-597.15 871.62,-597.51 873.23,-601.39"/>
<text xml:space="preserve" text-anchor="middle" x="863" y="-656.02" font-family="Inter,Helvetica,Arial" font-size="8.00" fill="#8b949e"> &#160;HDR RGBA16F &#160;</text>
</g>
<!-- ibl -->
<g id="node15" class="node">
<title>ibl</title>
<path fill="#8b949e" stroke="black" stroke-width="1.2" stroke-dasharray="5,2" d="M1449.77,-866.5C1449.77,-866.5 1268.23,-866.5 1268.23,-866.5 1262.23,-866.5 1256.23,-860.5 1256.23,-854.5 1256.23,-854.5 1256.23,-842.5 1256.23,-842.5 1256.23,-836.5 1262.23,-830.5 1268.23,-830.5 1268.23,-830.5 1449.77,-830.5 1449.77,-830.5 1455.77,-830.5 1461.77,-836.5 1461.77,-842.5 1461.77,-842.5 1461.77,-854.5 1461.77,-854.5 1461.77,-860.5 1455.77,-866.5 1449.77,-866.5"/>
<text xml:space="preserve" text-anchor="start" x="1306.12" y="-849.05" font-family="Inter,Helvetica,Arial" font-weight="bold" font-size="11.00" fill="#000000">#19 IBL Precompute</text>
<text xml:space="preserve" text-anchor="start" x="1264.88" y="-839.95" font-family="Inter,Helvetica,Arial" font-size="9.00" fill="#000000">one&#45;time: equirect→cubemap+SH+BRDF LUT</text>
</g>
<!-- ibl&#45;&gt;deferred -->
<g id="edge26" class="edge">
<title>ibl&#45;&gt;deferred</title>
<path fill="none" stroke="#484f58" stroke-dasharray="5,2" d="M1355.06,-830.15C1352.31,-818.02 1348.6,-801.65 1345.55,-788.21"/>
<polygon fill="#484f58" stroke="#484f58" points="1347.64,-787.94 1344.27,-782.56 1343.55,-788.87 1347.64,-787.94"/>
<text xml:space="preserve" text-anchor="middle" x="1392.44" y="-802.9" font-family="Inter,Helvetica,Arial" font-size="8.00" fill="#8b949e"> &#160;cubemap+SH+BRDF &#160;</text>
</g>
<!-- rt_reflect&#45;&gt;bloom -->
<g id="edge32" class="edge">
<title>rt_reflect&#45;&gt;bloom</title>
<path fill="none" stroke="#f85149" stroke-dasharray="5,2" d="M433.34,-640.27C443.78,-637.43 454.66,-634.76 465,-632.75 607.84,-605 777.85,-591.87 872.07,-586.31"/>
<polygon fill="#f85149" stroke="#f85149" points="872.17,-588.41 878.04,-585.96 871.93,-584.21 872.17,-588.41"/>
</g>
<!-- rt_shadow&#45;&gt;bloom -->
<g id="edge33" class="edge">
<title>rt_shadow&#45;&gt;bloom</title>
<path fill="none" stroke="#f85149" stroke-dasharray="5,2" d="M738.96,-640.18C757.15,-633.38 778.44,-625.79 798,-619.75 821.89,-612.38 848.3,-605.35 872.01,-599.44"/>
<polygon fill="#f85149" stroke="#f85149" points="872.49,-601.49 877.81,-598.01 871.48,-597.41 872.49,-601.49"/>
</g>
<!-- rt_gi&#45;&gt;bloom -->
<g id="edge34" class="edge">
<title>rt_gi&#45;&gt;bloom</title>
<path fill="none" stroke="#f85149" stroke-dasharray="5,2" d="M582.82,-640.18C591.12,-637.41 599.76,-634.8 608,-632.75 697.75,-610.49 803.59,-596.74 872.16,-589.43"/>
<polygon fill="#f85149" stroke="#f85149" points="872.25,-591.53 878,-588.81 871.81,-587.35 872.25,-591.53"/>
</g>
<!-- oit_resolve -->
<g id="node20" class="node">
<title>oit_resolve</title>
<path fill="#8957e5" stroke="black" stroke-width="1.2" d="M594.76,-1074.5C594.76,-1074.5 449.24,-1074.5 449.24,-1074.5 443.24,-1074.5 437.24,-1068.5 437.24,-1062.5 437.24,-1062.5 437.24,-1050.5 437.24,-1050.5 437.24,-1044.5 443.24,-1038.5 449.24,-1038.5 449.24,-1038.5 594.76,-1038.5 594.76,-1038.5 600.76,-1038.5 606.76,-1044.5 606.76,-1050.5 606.76,-1050.5 606.76,-1062.5 606.76,-1062.5 606.76,-1068.5 600.76,-1074.5 594.76,-1074.5"/>
<text xml:space="preserve" text-anchor="start" x="471.38" y="-1057.05" font-family="Inter,Helvetica,Arial" font-weight="bold" font-size="11.00" fill="#ffffff">#26 LL&#45;OIT Resolve</text>
<text xml:space="preserve" text-anchor="start" x="445.88" y="-1047.95" font-family="Inter,Helvetica,Arial" font-size="9.00" fill="#ffffff">insertion sort ≤16 layers → RGBA16F</text>
</g>
<!-- oit_insert&#45;&gt;oit_resolve -->
<g id="edge35" class="edge">
<title>oit_insert&#45;&gt;oit_resolve</title>
<path fill="none" stroke="#484f58" d="M527.81,-1142.2C526.68,-1125.64 524.95,-1100.5 523.68,-1081.91"/>
<polygon fill="#484f58" stroke="#484f58" points="525.8,-1082.24 523.3,-1076.4 521.61,-1082.53 525.8,-1082.24"/>
<text xml:space="preserve" text-anchor="middle" x="569.83" y="-1114.9" font-family="Inter,Helvetica,Arial" font-size="8.00" fill="#8b949e"> &#160;node pool + head ptrs &#160;</text>
</g>
<!-- compositor -->
<g id="node36" class="node">
<title>compositor</title>
<path fill="#d29922" stroke="black" stroke-width="1.2" d="M783.01,-970.5C783.01,-970.5 644.99,-970.5 644.99,-970.5 638.99,-970.5 632.99,-964.5 632.99,-958.5 632.99,-958.5 632.99,-946.5 632.99,-946.5 632.99,-940.5 638.99,-934.5 644.99,-934.5 644.99,-934.5 783.01,-934.5 783.01,-934.5 789.01,-934.5 795.01,-940.5 795.01,-946.5 795.01,-946.5 795.01,-958.5 795.01,-958.5 795.01,-964.5 789.01,-970.5 783.01,-970.5"/>
<text xml:space="preserve" text-anchor="start" x="641.62" y="-953.05" font-family="Inter,Helvetica,Arial" font-weight="bold" font-size="11.00" fill="#000000">#65 LayerStack Compositor</text>
<text xml:space="preserve" text-anchor="start" x="651.75" y="-943.95" font-family="Inter,Helvetica,Arial" font-size="9.00" fill="#000000">6&#45;layer alpha&#45;blend → final FB</text>
</g>
<!-- oit_resolve&#45;&gt;compositor -->
<g id="edge36" class="edge">
<title>oit_resolve&#45;&gt;compositor</title>
<path fill="none" stroke="#484f58" d="M555.01,-1037.97C588.21,-1020.32 639.43,-993.12 674.71,-974.37"/>
<polygon fill="#484f58" stroke="#484f58" points="675.45,-976.36 679.77,-971.69 673.48,-972.65 675.45,-976.36"/>
<text xml:space="preserve" text-anchor="middle" x="641.75" y="-1010.9" font-family="Inter,Helvetica,Arial" font-size="8.00" fill="#8b949e"> &#160;sorted RGBA16F &#160;</text>
</g>
<!-- hlr&#45;&gt;compositor -->
<g id="edge37" class="edge">
<title>hlr&#45;&gt;compositor</title>
<path fill="none" stroke="#484f58" d="M316.51,-1141.92C319.9,-1113.93 330.66,-1059.46 364.25,-1030.5 384.03,-1013.45 528.55,-985.6 625.52,-968.48"/>
<polygon fill="#484f58" stroke="#484f58" points="625.67,-970.59 631.22,-967.48 624.94,-966.45 625.67,-970.59"/>
<text xml:space="preserve" text-anchor="middle" x="391.62" y="-1053.78" font-family="Inter,Helvetica,Arial" font-size="8.00" fill="#8b949e"> &#160;edge overlay &#160;</text>
</g>
<!-- section&#45;&gt;compositor -->
<g id="edge38" class="edge">
<title>section&#45;&gt;compositor</title>
<path fill="none" stroke="#484f58" d="M130.61,-1141.92C153.74,-1113.41 203.66,-1057.59 259.5,-1030.5 311.61,-1005.22 330.68,-1017.12 388,-1008.75 416.8,-1004.54 424.22,-1005.12 453,-1000.75 510.5,-992.01 574.78,-980.4 625.17,-970.87"/>
<polygon fill="#484f58" stroke="#484f58" points="625.51,-972.94 631.01,-969.76 624.72,-968.82 625.51,-972.94"/>
<text xml:space="preserve" text-anchor="middle" x="288.75" y="-1053.78" font-family="Inter,Helvetica,Arial" font-size="8.00" fill="#8b949e"> &#160;section output &#160;</text>
</g>
<!-- ssr&#45;&gt;bloom -->
<g id="edge41" class="edge">
<title>ssr&#45;&gt;bloom</title>
<path fill="none" stroke="#484f58" stroke-dasharray="5,2" d="M975.49,-640.35C970.04,-630.39 963.13,-617.74 957.17,-606.84"/>
<polygon fill="#484f58" stroke="#484f58" points="959.05,-605.9 954.33,-601.64 955.36,-607.91 959.05,-605.9"/>
</g>
<!-- dof -->
<g id="node25" class="node">
<title>dof</title>
<path fill="#8b949e" stroke="black" stroke-width="1.2" stroke-dasharray="5,2" d="M1027.14,-522.75C1027.14,-522.75 892.86,-522.75 892.86,-522.75 886.86,-522.75 880.86,-516.75 880.86,-510.75 880.86,-510.75 880.86,-498.75 880.86,-498.75 880.86,-492.75 886.86,-486.75 892.86,-486.75 892.86,-486.75 1027.14,-486.75 1027.14,-486.75 1033.14,-486.75 1039.14,-492.75 1039.14,-498.75 1039.14,-498.75 1039.14,-510.75 1039.14,-510.75 1039.14,-516.75 1033.14,-522.75 1027.14,-522.75"/>
<text xml:space="preserve" text-anchor="start" x="938.62" y="-505.3" font-family="Inter,Helvetica,Arial" font-weight="bold" font-size="11.00" fill="#000000">#50 DoF</text>
<text xml:space="preserve" text-anchor="start" x="889.5" y="-496.2" font-family="Inter,Helvetica,Arial" font-size="9.00" fill="#000000">gather bokeh, half&#45;res, 16 samples</text>
</g>
<!-- bloom&#45;&gt;dof -->
<g id="edge42" class="edge">
<title>bloom&#45;&gt;dof</title>
<path fill="none" stroke="#484f58" d="M947.71,-563.35C949.8,-553.58 952.43,-541.22 954.73,-530.46"/>
<polygon fill="#484f58" stroke="#484f58" points="956.74,-531.1 955.94,-524.79 952.63,-530.22 956.74,-531.1"/>
</g>
<!-- motblur -->
<g id="node26" class="node">
<title>motblur</title>
<path fill="#8b949e" stroke="black" stroke-width="1.2" stroke-dasharray="5,2" d="M1009.89,-437C1009.89,-437 916.11,-437 916.11,-437 910.11,-437 904.11,-431 904.11,-425 904.11,-425 904.11,-413 904.11,-413 904.11,-407 910.11,-401 916.11,-401 916.11,-401 1009.89,-401 1009.89,-401 1015.89,-401 1021.89,-407 1021.89,-413 1021.89,-413 1021.89,-425 1021.89,-425 1021.89,-431 1015.89,-437 1009.89,-437"/>
<text xml:space="preserve" text-anchor="start" x="921.75" y="-419.55" font-family="Inter,Helvetica,Arial" font-weight="bold" font-size="11.00" fill="#000000">#51 Motion Blur</text>
<text xml:space="preserve" text-anchor="start" x="912.75" y="-410.45" font-family="Inter,Helvetica,Arial" font-size="9.00" fill="#000000">McGuire 2012 tile&#45;based</text>
</g>
<!-- dof&#45;&gt;motblur -->
<g id="edge43" class="edge">
<title>dof&#45;&gt;motblur</title>
<path fill="none" stroke="#484f58" d="M960.62,-486.4C961.05,-474.38 961.63,-458.21 962.11,-444.83"/>
<polygon fill="#484f58" stroke="#484f58" points="964.21,-444.91 962.32,-438.84 960.01,-444.76 964.21,-444.91"/>
</g>
<!-- tonemap -->
<g id="node27" class="node">
<title>tonemap</title>
<path fill="#bc8cff" stroke="black" stroke-width="1.2" d="M1035.39,-360C1035.39,-360 896.61,-360 896.61,-360 890.61,-360 884.61,-354 884.61,-348 884.61,-348 884.61,-336 884.61,-336 884.61,-330 890.61,-324 896.61,-324 896.61,-324 1035.39,-324 1035.39,-324 1041.39,-324 1047.39,-330 1047.39,-336 1047.39,-336 1047.39,-348 1047.39,-348 1047.39,-354 1041.39,-360 1035.39,-360"/>
<text xml:space="preserve" text-anchor="start" x="918.75" y="-342.55" font-family="Inter,Helvetica,Arial" font-weight="bold" font-size="11.00" fill="#000000">#52 Tone Mapping</text>
<text xml:space="preserve" text-anchor="start" x="893.25" y="-333.45" font-family="Inter,Helvetica,Arial" font-size="9.00" fill="#000000">ACES/AgX/Khronos + vignette + CA</text>
</g>
<!-- motblur&#45;&gt;tonemap -->
<g id="edge44" class="edge">
<title>motblur&#45;&gt;tonemap</title>
<path fill="none" stroke="#484f58" d="M963.7,-400.6C964.08,-390.92 964.57,-378.71 965,-368.02"/>
<polygon fill="#484f58" stroke="#484f58" points="967.1,-368.15 965.24,-362.07 962.9,-367.98 967.1,-368.15"/>
</g>
<!-- taa -->
<g id="node28" class="node">
<title>taa</title>
<path fill="#8957e5" stroke="black" stroke-width="1.2" d="M1049.77,-283C1049.77,-283 892.24,-283 892.24,-283 886.24,-283 880.24,-277 880.24,-271 880.24,-271 880.24,-259 880.24,-259 880.24,-253 886.24,-247 892.24,-247 892.24,-247 1049.77,-247 1049.77,-247 1055.77,-247 1061.77,-253 1061.77,-259 1061.77,-259 1061.77,-271 1061.77,-271 1061.77,-277 1055.77,-283 1049.77,-283"/>
<text xml:space="preserve" text-anchor="start" x="949.25" y="-265.55" font-family="Inter,Helvetica,Arial" font-weight="bold" font-size="11.00" fill="#ffffff">#53 TAA</text>
<text xml:space="preserve" text-anchor="start" x="888.88" y="-256.45" font-family="Inter,Helvetica,Arial" font-size="9.00" fill="#ffffff">Halton jitter, YCoCg clamp, motion reject</text>
</g>
<!-- tonemap&#45;&gt;taa -->
<g id="edge45" class="edge">
<title>tonemap&#45;&gt;taa</title>
<path fill="none" stroke="#484f58" d="M967.16,-323.6C967.81,-313.92 968.62,-301.71 969.33,-291.02"/>
<polygon fill="#484f58" stroke="#484f58" points="971.42,-291.2 969.73,-285.07 967.23,-290.92 971.42,-291.2"/>
</g>
<!-- fsr -->
<g id="node29" class="node">
<title>fsr</title>
<path fill="#8b949e" stroke="black" stroke-width="1.2" stroke-dasharray="5,2" d="M1019.89,-206C1019.89,-206 902.11,-206 902.11,-206 896.11,-206 890.11,-200 890.11,-194 890.11,-194 890.11,-182 890.11,-182 890.11,-176 896.11,-170 902.11,-170 902.11,-170 1019.89,-170 1019.89,-170 1025.89,-170 1031.89,-176 1031.89,-182 1031.89,-182 1031.89,-194 1031.89,-194 1031.89,-200 1025.89,-206 1019.89,-206"/>
<text xml:space="preserve" text-anchor="start" x="922.75" y="-188.55" font-family="Inter,Helvetica,Arial" font-weight="bold" font-size="11.00" fill="#000000">#54 FSR/DLSS</text>
<text xml:space="preserve" text-anchor="start" x="898.75" y="-179.45" font-family="Inter,Helvetica,Arial" font-size="9.00" fill="#000000">temporal upscale 67%→100%</text>
</g>
<!-- taa&#45;&gt;fsr -->
<g id="edge46" class="edge">
<title>taa&#45;&gt;fsr</title>
<path fill="none" stroke="#484f58" d="M968.68,-246.6C967.38,-236.83 965.73,-224.47 964.29,-213.71"/>
<polygon fill="#484f58" stroke="#484f58" points="966.42,-213.73 963.54,-208.06 962.25,-214.29 966.42,-213.73"/>
</g>
<!-- cas -->
<g id="node30" class="node">
<title>cas</title>
<path fill="#8957e5" stroke="black" stroke-width="1.2" d="M999.76,-129C999.76,-129 914.24,-129 914.24,-129 908.24,-129 902.24,-123 902.24,-117 902.24,-117 902.24,-105 902.24,-105 902.24,-99 908.24,-93 914.24,-93 914.24,-93 999.76,-93 999.76,-93 1005.76,-93 1011.76,-99 1011.76,-105 1011.76,-105 1011.76,-117 1011.76,-117 1011.76,-123 1005.76,-129 999.76,-129"/>
<text xml:space="preserve" text-anchor="start" x="910.88" y="-111.55" font-family="Inter,Helvetica,Arial" font-weight="bold" font-size="11.00" fill="#ffffff">#56 CAS Sharpen</text>
<text xml:space="preserve" text-anchor="start" x="915" y="-102.45" font-family="Inter,Helvetica,Arial" font-size="9.00" fill="#ffffff">AMD FidelityFX CAS</text>
</g>
<!-- fsr&#45;&gt;cas -->
<g id="edge47" class="edge">
<title>fsr&#45;&gt;cas</title>
<path fill="none" stroke="#484f58" d="M960.07,-169.6C959.56,-159.92 958.9,-147.71 958.33,-137.02"/>
<polygon fill="#484f58" stroke="#484f58" points="960.43,-136.95 958.02,-131.07 956.24,-137.18 960.43,-136.95"/>
</g>
<!-- colorgrade -->
<g id="node31" class="node">
<title>colorgrade</title>
<path fill="#8b949e" stroke="black" stroke-width="1.2" stroke-dasharray="5,2" d="M986.26,-52C986.26,-52 897.74,-52 897.74,-52 891.74,-52 885.74,-46 885.74,-40 885.74,-40 885.74,-28 885.74,-28 885.74,-22 891.74,-16 897.74,-16 897.74,-16 986.26,-16 986.26,-16 992.26,-16 998.26,-22 998.26,-28 998.26,-28 998.26,-40 998.26,-40 998.26,-46 992.26,-52 986.26,-52"/>
<text xml:space="preserve" text-anchor="start" x="894.38" y="-34.55" font-family="Inter,Helvetica,Arial" font-weight="bold" font-size="11.00" fill="#000000">#57 Color Grading</text>
<text xml:space="preserve" text-anchor="start" x="901.88" y="-25.45" font-family="Inter,Helvetica,Arial" font-size="9.00" fill="#000000">3D LUT 32³ RGBA8</text>
</g>
<!-- cas&#45;&gt;colorgrade -->
<g id="edge48" class="edge">
<title>cas&#45;&gt;colorgrade</title>
<path fill="none" stroke="#484f58" d="M953.52,-92.6C951.57,-82.83 949.09,-70.47 946.94,-59.71"/>
<polygon fill="#484f58" stroke="#484f58" points="949.04,-59.52 945.81,-54.04 944.93,-60.34 949.04,-59.52"/>
</g>
<!-- colorgrade&#45;&gt;compositor -->
<g id="edge49" class="edge">
<title>colorgrade&#45;&gt;compositor</title>
<path fill="none" stroke="#484f58" d="M885.15,-35.37C722.19,-37.18 265,-47.81 265,-110 265,-720.88 265,-720.88 265,-720.88 265,-914.22 553.83,-683.28 688,-822.5 714.92,-850.44 717.57,-898.08 716.3,-926.98"/>
<polygon fill="#484f58" stroke="#484f58" points="714.21,-926.64 715.96,-932.75 718.41,-926.88 714.21,-926.64"/>
<text xml:space="preserve" text-anchor="middle" x="299.5" y="-459.15" font-family="Inter,Helvetica,Arial" font-size="8.00" fill="#8b949e"> &#160;scene layer color &#160;</text>
</g>
<!-- vrs -->
<g id="node32" class="node">
<title>vrs</title>
<path fill="#8b949e" stroke="black" stroke-width="1.2" stroke-dasharray="5,2" d="M781.26,-1074.5C781.26,-1074.5 644.74,-1074.5 644.74,-1074.5 638.74,-1074.5 632.74,-1068.5 632.74,-1062.5 632.74,-1062.5 632.74,-1050.5 632.74,-1050.5 632.74,-1044.5 638.74,-1038.5 644.74,-1038.5 644.74,-1038.5 781.26,-1038.5 781.26,-1038.5 787.26,-1038.5 793.26,-1044.5 793.26,-1050.5 793.26,-1050.5 793.26,-1062.5 793.26,-1062.5 793.26,-1068.5 787.26,-1074.5 781.26,-1074.5"/>
<text xml:space="preserve" text-anchor="start" x="673.62" y="-1057.05" font-family="Inter,Helvetica,Arial" font-weight="bold" font-size="11.00" fill="#000000">#59 VRS Image</text>
<text xml:space="preserve" text-anchor="start" x="641.38" y="-1047.95" font-family="Inter,Helvetica,Arial" font-size="9.00" fill="#000000">luminance gradient → shading rate</text>
</g>
<!-- vrs&#45;&gt;task_mesh -->
<g id="edge53" class="edge">
<title>vrs&#45;&gt;task_mesh</title>
<path fill="none" stroke="#484f58" stroke-dasharray="5,2" d="M740.33,-1074.93C758.28,-1085.46 782.66,-1098.09 806,-1104.75 902.05,-1132.16 1178.18,-1148.12 1333.16,-1155.16"/>
<polygon fill="#484f58" stroke="#484f58" points="1332.85,-1157.24 1338.94,-1155.42 1333.04,-1153.05 1332.85,-1157.24"/>
<text xml:space="preserve" text-anchor="middle" x="934.46" y="-1114.9" font-family="Inter,Helvetica,Arial" font-size="8.00" fill="#8b949e"> &#160;shading rate image &#160;</text>
</g>
<!-- overlays -->
<g id="node33" class="node">
<title>overlays</title>
<path fill="#1f6feb" stroke="black" stroke-width="1.2" d="M985.64,-1074.5C985.64,-1074.5 830.36,-1074.5 830.36,-1074.5 824.36,-1074.5 818.36,-1068.5 818.36,-1062.5 818.36,-1062.5 818.36,-1050.5 818.36,-1050.5 818.36,-1044.5 824.36,-1038.5 830.36,-1038.5 830.36,-1038.5 985.64,-1038.5 985.64,-1038.5 991.64,-1038.5 997.64,-1044.5 997.64,-1050.5 997.64,-1050.5 997.64,-1062.5 997.64,-1062.5 997.64,-1068.5 991.64,-1074.5 985.64,-1074.5"/>
<text xml:space="preserve" text-anchor="start" x="862.62" y="-1057.05" font-family="Inter,Helvetica,Arial" font-weight="bold" font-size="11.00" fill="#ffffff">#60–#64 Overlays</text>
<text xml:space="preserve" text-anchor="start" x="827" y="-1047.95" font-family="Inter,Helvetica,Arial" font-size="9.00" fill="#ffffff">Gizmo, Grid, ViewCube, Snap, Measure</text>
</g>
<!-- overlays&#45;&gt;compositor -->
<g id="edge50" class="edge">
<title>overlays&#45;&gt;compositor</title>
<path fill="none" stroke="#484f58" d="M874.65,-1037.97C841.1,-1020.32 789.35,-993.12 753.7,-974.37"/>
<polygon fill="#484f58" stroke="#484f58" points="754.87,-972.61 748.58,-971.68 752.91,-976.33 754.87,-972.61"/>
<text xml:space="preserve" text-anchor="middle" x="861.08" y="-1010.9" font-family="Inter,Helvetica,Arial" font-size="8.00" fill="#8b949e"> &#160;overlay layer &#160;</text>
</g>
<!-- pmi -->
<g id="node34" class="node">
<title>pmi</title>
<path fill="#1f6feb" stroke="black" stroke-width="1.2" d="M1153.64,-1074.5C1153.64,-1074.5 1034.36,-1074.5 1034.36,-1074.5 1028.36,-1074.5 1022.36,-1068.5 1022.36,-1062.5 1022.36,-1062.5 1022.36,-1050.5 1022.36,-1050.5 1022.36,-1044.5 1028.36,-1038.5 1034.36,-1038.5 1034.36,-1038.5 1153.64,-1038.5 1153.64,-1038.5 1159.64,-1038.5 1165.64,-1044.5 1165.64,-1050.5 1165.64,-1050.5 1165.64,-1062.5 1165.64,-1062.5 1165.64,-1068.5 1159.64,-1074.5 1153.64,-1074.5"/>
<text xml:space="preserve" text-anchor="start" x="1053.12" y="-1057.05" font-family="Inter,Helvetica,Arial" font-weight="bold" font-size="11.00" fill="#ffffff">#45 PMI Render</text>
<text xml:space="preserve" text-anchor="start" x="1031" y="-1047.95" font-family="Inter,Helvetica,Arial" font-size="9.00" fill="#ffffff">MSDF text + leaders + symbols</text>
</g>
<!-- pmi&#45;&gt;compositor -->
<g id="edge51" class="edge">
<title>pmi&#45;&gt;compositor</title>
<path fill="none" stroke="#484f58" d="M1036.24,-1038.02C1027.46,-1035.45 1018.5,-1032.87 1010,-1030.5 936.15,-1009.91 851.45,-988.05 791.63,-972.91"/>
<polygon fill="#484f58" stroke="#484f58" points="792.26,-970.9 785.92,-971.47 791.23,-974.97 792.26,-970.9"/>
<text xml:space="preserve" text-anchor="middle" x="994.73" y="-1010.9" font-family="Inter,Helvetica,Arial" font-size="8.00" fill="#8b949e"> &#160;annotation layer &#160;</text>
</g>
<!-- analysis -->
<g id="node35" class="node">
<title>analysis</title>
<path fill="#8b949e" stroke="black" stroke-width="1.2" stroke-dasharray="5,2" d="M1305.02,-1074.5C1305.02,-1074.5 1202.98,-1074.5 1202.98,-1074.5 1196.98,-1074.5 1190.98,-1068.5 1190.98,-1062.5 1190.98,-1062.5 1190.98,-1050.5 1190.98,-1050.5 1190.98,-1044.5 1196.98,-1038.5 1202.98,-1038.5 1202.98,-1038.5 1305.02,-1038.5 1305.02,-1038.5 1311.02,-1038.5 1317.02,-1044.5 1317.02,-1050.5 1317.02,-1050.5 1317.02,-1062.5 1317.02,-1062.5 1317.02,-1068.5 1311.02,-1074.5 1305.02,-1074.5"/>
<text xml:space="preserve" text-anchor="start" x="1199.62" y="-1057.05" font-family="Inter,Helvetica,Arial" font-weight="bold" font-size="11.00" fill="#000000">#46 Analysis Overlay</text>
<text xml:space="preserve" text-anchor="start" x="1205.25" y="-1047.95" font-family="Inter,Helvetica,Arial" font-size="9.00" fill="#000000">Zebra/Curvature/Draft/...</text>
</g>
<!-- analysis&#45;&gt;compositor -->
<g id="edge52" class="edge">
<title>analysis&#45;&gt;compositor</title>
<path fill="none" stroke="#484f58" d="M1204.44,-1037.99C1195.7,-1035.25 1186.63,-1032.62 1178,-1030.5 1048.94,-998.76 896.43,-976.26 802.46,-964.07"/>
<polygon fill="#484f58" stroke="#484f58" points="802.95,-962.02 796.74,-963.33 802.42,-966.18 802.95,-962.02"/>
<text xml:space="preserve" text-anchor="middle" x="1143.81" y="-1010.9" font-family="Inter,Helvetica,Arial" font-size="8.00" fill="#8b949e"> &#160;analysis layer &#160;</text>
</g>
<!-- present -->
<g id="node37" class="node">
<title>present</title>
<path fill="#3fb950" stroke="black" stroke-width="1.2" d="M663.89,-866.5C663.89,-866.5 468.11,-866.5 468.11,-866.5 462.11,-866.5 456.11,-860.5 456.11,-854.5 456.11,-854.5 456.11,-842.5 456.11,-842.5 456.11,-836.5 462.11,-830.5 468.11,-830.5 468.11,-830.5 663.89,-830.5 663.89,-830.5 669.89,-830.5 675.89,-836.5 675.89,-842.5 675.89,-842.5 675.89,-854.5 675.89,-854.5 675.89,-860.5 669.89,-866.5 663.89,-866.5"/>
<text xml:space="preserve" text-anchor="start" x="545.75" y="-849.05" font-family="Inter,Helvetica,Arial" font-weight="bold" font-size="11.00" fill="#000000">Present</text>
<text xml:space="preserve" text-anchor="start" x="464.75" y="-839.95" font-family="Inter,Helvetica,Arial" font-size="9.00" fill="#000000">vkQueuePresentKHR / IDXGISwapChain::Present</text>
</g>
<!-- compositor&#45;&gt;present -->
<g id="edge54" class="edge">
<title>compositor&#45;&gt;present</title>
<path fill="none" stroke="#484f58" d="M663.67,-934.07C651.31,-928.71 638.49,-922.16 627.5,-914.5 610.77,-902.84 595.03,-886.05 583.66,-872.46"/>
<polygon fill="#484f58" stroke="#484f58" points="585.45,-871.33 580.03,-868.02 582.21,-873.99 585.45,-871.33"/>
<text xml:space="preserve" text-anchor="middle" x="661.25" y="-906.9" font-family="Inter,Helvetica,Arial" font-size="8.00" fill="#8b949e"> &#160;final framebuffer &#160;</text>
</g>
<!-- cluster_stream -->
<g id="node38" class="node">
<title>cluster_stream</title>
<path fill="#d29922" stroke="black" stroke-width="1.2" stroke-dasharray="5,2" d="M1880.64,-1282.5C1880.64,-1282.5 1713.36,-1282.5 1713.36,-1282.5 1707.36,-1282.5 1701.36,-1276.5 1701.36,-1270.5 1701.36,-1270.5 1701.36,-1258.5 1701.36,-1258.5 1701.36,-1252.5 1707.36,-1246.5 1713.36,-1246.5 1713.36,-1246.5 1880.64,-1246.5 1880.64,-1246.5 1886.64,-1246.5 1892.64,-1252.5 1892.64,-1258.5 1892.64,-1258.5 1892.64,-1270.5 1892.64,-1270.5 1892.64,-1276.5 1886.64,-1282.5 1880.64,-1282.5"/>
<text xml:space="preserve" text-anchor="start" x="1737.38" y="-1265.05" font-family="Inter,Helvetica,Arial" font-weight="bold" font-size="11.00" fill="#000000">Cluster Stream Upload</text>
<text xml:space="preserve" text-anchor="start" x="1710" y="-1255.95" font-family="Inter,Helvetica,Arial" font-size="9.00" fill="#000000">continuous DMA, timeline semaphore sync</text>
</g>
<!-- cluster_stream&#45;&gt;task_mesh -->
<g id="edge55" class="edge">
<title>cluster_stream&#45;&gt;task_mesh</title>
<path fill="none" stroke="#58a6ff" stroke-dasharray="5,2" stroke-opacity="0.250980" d="M1735.97,-1245.97C1673.14,-1227.91 1575.44,-1199.84 1510.13,-1181.07"/>
<polygon fill="#58a6ff" fill-opacity="0.250980" stroke="#58a6ff" stroke-opacity="0.250980" points="1510.92,-1179.12 1504.58,-1179.48 1509.76,-1183.15 1510.92,-1179.12"/>
<text xml:space="preserve" text-anchor="middle" x="1714.24" y="-1218.9" font-family="Inter,Helvetica,Arial" font-size="8.00" fill="#8b949e"> &#160;timeline sem: cluster pages &#160;</text>
</g>
<!-- leg_cpu -->
<g id="node39" class="node">
<title>leg_cpu</title>
<path fill="#238636" stroke="black" stroke-width="1.2" d="M2141.89,-1576.25C2141.89,-1576.25 2096.11,-1576.25 2096.11,-1576.25 2090.11,-1576.25 2084.11,-1570.25 2084.11,-1564.25 2084.11,-1564.25 2084.11,-1552.25 2084.11,-1552.25 2084.11,-1546.25 2090.11,-1540.25 2096.11,-1540.25 2096.11,-1540.25 2141.89,-1540.25 2141.89,-1540.25 2147.89,-1540.25 2153.89,-1546.25 2153.89,-1552.25 2153.89,-1552.25 2153.89,-1564.25 2153.89,-1564.25 2153.89,-1570.25 2147.89,-1576.25 2141.89,-1576.25"/>
<text xml:space="preserve" text-anchor="start" x="2092.75" y="-1555.55" font-family="Inter,Helvetica,Arial" font-weight="bold" font-size="11.00" fill="#ffffff">CPU Pass</text>
</g>
<!-- leg_gfx -->
<g id="node40" class="node">
<title>leg_gfx</title>
<path fill="#1f6feb" stroke="black" stroke-width="1.2" d="M2153.51,-1472.25C2153.51,-1472.25 2084.49,-1472.25 2084.49,-1472.25 2078.49,-1472.25 2072.49,-1466.25 2072.49,-1460.25 2072.49,-1460.25 2072.49,-1448.25 2072.49,-1448.25 2072.49,-1442.25 2078.49,-1436.25 2084.49,-1436.25 2084.49,-1436.25 2153.51,-1436.25 2153.51,-1436.25 2159.51,-1436.25 2165.51,-1442.25 2165.51,-1448.25 2165.51,-1448.25 2165.51,-1460.25 2165.51,-1460.25 2165.51,-1466.25 2159.51,-1472.25 2153.51,-1472.25"/>
<text xml:space="preserve" text-anchor="start" x="2081.12" y="-1451.55" font-family="Inter,Helvetica,Arial" font-weight="bold" font-size="11.00" fill="#ffffff">Graphics Pass</text>
</g>
<!-- leg_cpu&#45;&gt;leg_gfx -->
<!-- leg_compute -->
<g id="node41" class="node">
<title>leg_compute</title>
<path fill="#8957e5" stroke="black" stroke-width="1.2" d="M2153.89,-1386.5C2153.89,-1386.5 2084.11,-1386.5 2084.11,-1386.5 2078.11,-1386.5 2072.11,-1380.5 2072.11,-1374.5 2072.11,-1374.5 2072.11,-1362.5 2072.11,-1362.5 2072.11,-1356.5 2078.11,-1350.5 2084.11,-1350.5 2084.11,-1350.5 2153.89,-1350.5 2153.89,-1350.5 2159.89,-1350.5 2165.89,-1356.5 2165.89,-1362.5 2165.89,-1362.5 2165.89,-1374.5 2165.89,-1374.5 2165.89,-1380.5 2159.89,-1386.5 2153.89,-1386.5"/>
<text xml:space="preserve" text-anchor="start" x="2080.75" y="-1365.8" font-family="Inter,Helvetica,Arial" font-weight="bold" font-size="11.00" fill="#ffffff">Compute Pass</text>
</g>
<!-- leg_gfx&#45;&gt;leg_compute -->
<!-- leg_frag -->
<g id="node42" class="node">
<title>leg_frag</title>
<path fill="#d29922" stroke="black" stroke-width="1.2" d="M2155.01,-1282.5C2155.01,-1282.5 2082.99,-1282.5 2082.99,-1282.5 2076.99,-1282.5 2070.99,-1276.5 2070.99,-1270.5 2070.99,-1270.5 2070.99,-1258.5 2070.99,-1258.5 2070.99,-1252.5 2076.99,-1246.5 2082.99,-1246.5 2082.99,-1246.5 2155.01,-1246.5 2155.01,-1246.5 2161.01,-1246.5 2167.01,-1252.5 2167.01,-1258.5 2167.01,-1258.5 2167.01,-1270.5 2167.01,-1270.5 2167.01,-1276.5 2161.01,-1282.5 2155.01,-1282.5"/>
<text xml:space="preserve" text-anchor="start" x="2079.62" y="-1261.8" font-family="Inter,Helvetica,Arial" font-weight="bold" font-size="11.00" fill="#000000">Fragment Pass</text>
</g>
<!-- leg_compute&#45;&gt;leg_frag -->
<!-- leg_post -->
<g id="node43" class="node">
<title>leg_post</title>
<path fill="#bc8cff" stroke="black" stroke-width="1.2" d="M2159.14,-1178.5C2159.14,-1178.5 2078.86,-1178.5 2078.86,-1178.5 2072.86,-1178.5 2066.86,-1172.5 2066.86,-1166.5 2066.86,-1166.5 2066.86,-1154.5 2066.86,-1154.5 2066.86,-1148.5 2072.86,-1142.5 2078.86,-1142.5 2078.86,-1142.5 2159.14,-1142.5 2159.14,-1142.5 2165.14,-1142.5 2171.14,-1148.5 2171.14,-1154.5 2171.14,-1154.5 2171.14,-1166.5 2171.14,-1166.5 2171.14,-1172.5 2165.14,-1178.5 2159.14,-1178.5"/>
<text xml:space="preserve" text-anchor="start" x="2075.5" y="-1157.8" font-family="Inter,Helvetica,Arial" font-weight="bold" font-size="11.00" fill="#000000">Post&#45;Processing</text>
</g>
<!-- leg_frag&#45;&gt;leg_post -->
<!-- leg_cad -->
<g id="node44" class="node">
<title>leg_cad</title>
<path fill="#39d2c0" stroke="black" stroke-width="1.2" d="M2149.76,-1074.5C2149.76,-1074.5 2088.24,-1074.5 2088.24,-1074.5 2082.24,-1074.5 2076.24,-1068.5 2076.24,-1062.5 2076.24,-1062.5 2076.24,-1050.5 2076.24,-1050.5 2076.24,-1044.5 2082.24,-1038.5 2088.24,-1038.5 2088.24,-1038.5 2149.76,-1038.5 2149.76,-1038.5 2155.76,-1038.5 2161.76,-1044.5 2161.76,-1050.5 2161.76,-1050.5 2161.76,-1062.5 2161.76,-1062.5 2161.76,-1068.5 2155.76,-1074.5 2149.76,-1074.5"/>
<text xml:space="preserve" text-anchor="start" x="2084.88" y="-1053.8" font-family="Inter,Helvetica,Arial" font-weight="bold" font-size="11.00" fill="#000000">CAD Domain</text>
</g>
<!-- leg_post&#45;&gt;leg_cad -->
<!-- leg_opt -->
<g id="node45" class="node">
<title>leg_opt</title>
<path fill="#8b949e" stroke="black" stroke-width="1.2" stroke-dasharray="5,2" d="M2172.64,-970.5C2172.64,-970.5 2065.36,-970.5 2065.36,-970.5 2059.36,-970.5 2053.36,-964.5 2053.36,-958.5 2053.36,-958.5 2053.36,-946.5 2053.36,-946.5 2053.36,-940.5 2059.36,-934.5 2065.36,-934.5 2065.36,-934.5 2172.64,-934.5 2172.64,-934.5 2178.64,-934.5 2184.64,-940.5 2184.64,-946.5 2184.64,-946.5 2184.64,-958.5 2184.64,-958.5 2184.64,-964.5 2178.64,-970.5 2172.64,-970.5"/>
<text xml:space="preserve" text-anchor="start" x="2062" y="-949.8" font-family="Inter,Helvetica,Arial" font-weight="bold" font-size="11.00" fill="#000000">Optional / Conditional</text>
</g>
<!-- leg_cad&#45;&gt;leg_opt -->
<!-- leg_rt -->
<g id="node46" class="node">
<title>leg_rt</title>
<path fill="#f85149" stroke="black" stroke-width="1.2" d="M2171.14,-866.5C2171.14,-866.5 2066.86,-866.5 2066.86,-866.5 2060.86,-866.5 2054.86,-860.5 2054.86,-854.5 2054.86,-854.5 2054.86,-842.5 2054.86,-842.5 2054.86,-836.5 2060.86,-830.5 2066.86,-830.5 2066.86,-830.5 2171.14,-830.5 2171.14,-830.5 2177.14,-830.5 2183.14,-836.5 2183.14,-842.5 2183.14,-842.5 2183.14,-854.5 2183.14,-854.5 2183.14,-860.5 2177.14,-866.5 2171.14,-866.5"/>
<text xml:space="preserve" text-anchor="start" x="2063.5" y="-845.8" font-family="Inter,Helvetica,Arial" font-weight="bold" font-size="11.00" fill="#ffffff">Ray Tracing (T1 only)</text>
</g>
<!-- leg_opt&#45;&gt;leg_rt -->
<!-- leg_present -->
<g id="node47" class="node">
<title>leg_present</title>
<path fill="#3fb950" stroke="black" stroke-width="1.2" d="M2135.89,-780.75C2135.89,-780.75 2102.11,-780.75 2102.11,-780.75 2096.11,-780.75 2090.11,-774.75 2090.11,-768.75 2090.11,-768.75 2090.11,-756.75 2090.11,-756.75 2090.11,-750.75 2096.11,-744.75 2102.11,-744.75 2102.11,-744.75 2135.89,-744.75 2135.89,-744.75 2141.89,-744.75 2147.89,-750.75 2147.89,-756.75 2147.89,-756.75 2147.89,-768.75 2147.89,-768.75 2147.89,-774.75 2141.89,-780.75 2135.89,-780.75"/>
<text xml:space="preserve" text-anchor="start" x="2098.75" y="-760.05" font-family="Inter,Helvetica,Arial" font-weight="bold" font-size="11.00" fill="#000000">Present</text>
</g>
<!-- leg_rt&#45;&gt;leg_present -->
</g>
</svg>
