<?xml version="1.0" encoding="UTF-8" standalone="no"?>
<!DOCTYPE svg PUBLIC "-//W3C//DTD SVG 1.1//EN"
 "http://www.w3.org/Graphics/SVG/1.1/DTD/svg11.dtd">
<!-- Generated by graphviz version 14.1.2 (20260124.0452)
 -->
<!-- Title: Tier2_RenderGraph Pages: 1 -->
<svg width="1985pt" height="1292pt"
 viewBox="0.00 0.00 1985.00 1292.00" xmlns="http://www.w3.org/2000/svg" xmlns:xlink="http://www.w3.org/1999/xlink">
<g id="graph0" class="graph" transform="scale(1 1) rotate(0) translate(36 1255.5)">
<title>Tier2_RenderGraph</title>
<polygon fill="#0d1117" stroke="none" points="-36,36 -36,-1255.5 1949,-1255.5 1949,36 -36,36"/>
<text xml:space="preserve" text-anchor="start" x="743.88" y="-1203.2" font-family="Inter,Helvetica,Arial" font-weight="bold" font-size="14.00" fill="#e6edf3">miki Tier2 RenderGraph — Compat Vulkan 1.1+ (No Mesh Shader)</text>
<text xml:space="preserve" text-anchor="start" x="730.75" y="-1192.05" font-family="Inter,Helvetica,Arial" font-size="11.00" fill="#8b949e">21 passes · Vertex+MDI · CSM · GTAO · TAA · LL&#45;OIT · Single Queue · CPU Frustum Culling</text>
<g id="clust1" class="cluster">
<title>cluster_cpu</title>
<path fill="#161b22" fill-opacity="0.250980" stroke="#30363d" stroke-dasharray="5,2" d="M759,-1018.5C759,-1018.5 1264,-1018.5 1264,-1018.5 1270,-1018.5 1276,-1024.5 1276,-1030.5 1276,-1030.5 1276,-1166.5 1276,-1166.5 1276,-1172.5 1270,-1178.5 1264,-1178.5 1264,-1178.5 759,-1178.5 759,-1178.5 753,-1178.5 747,-1172.5 747,-1166.5 747,-1166.5 747,-1030.5 747,-1030.5 747,-1024.5 753,-1018.5 759,-1018.5"/>
<text xml:space="preserve" text-anchor="middle" x="1011.5" y="-1163.1" font-family="Inter,Helvetica,Arial" font-size="12.00" fill="#c9d1d9">CPU Preparation</text>
</g>
<g id="clust2" class="cluster">
<title>cluster_geometry</title>
<path fill="#161b22" fill-opacity="0.250980" stroke="#30363d" stroke-dasharray="5,2" d="M930,-810.5C930,-810.5 1361,-810.5 1361,-810.5 1367,-810.5 1373,-816.5 1373,-822.5 1373,-822.5 1373,-976.75 1373,-976.75 1373,-982.75 1367,-988.75 1361,-988.75 1361,-988.75 930,-988.75 930,-988.75 924,-988.75 918,-982.75 918,-976.75 918,-976.75 918,-822.5 918,-822.5 918,-816.5 924,-810.5 930,-810.5"/>
<text xml:space="preserve" text-anchor="middle" x="1145.5" y="-973.35" font-family="Inter,Helvetica,Arial" font-size="12.00" fill="#c9d1d9">Geometry Stage (Vertex + MDI)</text>
</g>
<g id="clust3" class="cluster">
<title>cluster_shadow</title>
<path fill="#161b22" fill-opacity="0.250980" stroke="#30363d" stroke-dasharray="5,2" d="M757,-706.5C757,-706.5 1105,-706.5 1105,-706.5 1111,-706.5 1117,-712.5 1117,-718.5 1117,-718.5 1117,-768.75 1117,-768.75 1117,-774.75 1111,-780.75 1105,-780.75 1105,-780.75 757,-780.75 757,-780.75 751,-780.75 745,-774.75 745,-768.75 745,-768.75 745,-718.5 745,-718.5 745,-712.5 751,-706.5 757,-706.5"/>
<text xml:space="preserve" text-anchor="middle" x="931" y="-765.35" font-family="Inter,Helvetica,Arial" font-size="12.00" fill="#c9d1d9">Shadow Stage (CSM)</text>
</g>
<g id="clust4" class="cluster">
<title>cluster_ao</title>
<path fill="#161b22" fill-opacity="0.250980" stroke="#30363d" stroke-dasharray="5,2" d="M1419,-706.5C1419,-706.5 1585,-706.5 1585,-706.5 1591,-706.5 1597,-712.5 1597,-718.5 1597,-718.5 1597,-768.75 1597,-768.75 1597,-774.75 1591,-780.75 1585,-780.75 1585,-780.75 1419,-780.75 1419,-780.75 1413,-780.75 1407,-774.75 1407,-768.75 1407,-768.75 1407,-718.5 1407,-718.5 1407,-712.5 1413,-706.5 1419,-706.5"/>
<text xml:space="preserve" text-anchor="middle" x="1502" y="-765.35" font-family="Inter,Helvetica,Arial" font-size="12.00" fill="#c9d1d9">Ambient Occlusion</text>
</g>
<g id="clust5" class="cluster">
<title>cluster_resolve</title>
<path fill="#161b22" fill-opacity="0.250980" stroke="#30363d" stroke-dasharray="5,2" d="M1137,-620.75C1137,-620.75 1387,-620.75 1387,-620.75 1393,-620.75 1399,-626.75 1399,-632.75 1399,-632.75 1399,-768.75 1399,-768.75 1399,-774.75 1393,-780.75 1387,-780.75 1387,-780.75 1137,-780.75 1137,-780.75 1131,-780.75 1125,-774.75 1125,-768.75 1125,-768.75 1125,-632.75 1125,-632.75 1125,-626.75 1131,-620.75 1137,-620.75"/>
<text xml:space="preserve" text-anchor="middle" x="1262" y="-765.35" font-family="Inter,Helvetica,Arial" font-size="12.00" fill="#c9d1d9">Deferred Resolve</text>
</g>
<g id="clust6" class="cluster">
<title>cluster_oit</title>
<path fill="#161b22" fill-opacity="0.250980" stroke="#30363d" stroke-dasharray="5,2" d="M392,-163.5C392,-163.5 568,-163.5 568,-163.5 574,-163.5 580,-169.5 580,-175.5 580,-175.5 580,-329.75 580,-329.75 580,-335.75 574,-341.75 568,-341.75 568,-341.75 392,-341.75 392,-341.75 386,-341.75 380,-335.75 380,-329.75 380,-329.75 380,-175.5 380,-175.5 380,-169.5 386,-163.5 392,-163.5"/>
<text xml:space="preserve" text-anchor="middle" x="480" y="-326.35" font-family="Inter,Helvetica,Arial" font-size="12.00" fill="#c9d1d9">Order&#45;Independent Transparency</text>
</g>
<g id="clust7" class="cluster">
<title>cluster_cad</title>
<path fill="#161b22" fill-opacity="0.250980" stroke="#30363d" stroke-dasharray="5,2" d="M505,-810.5C505,-810.5 898,-810.5 898,-810.5 904,-810.5 910,-816.5 910,-822.5 910,-822.5 910,-872.75 910,-872.75 910,-878.75 904,-884.75 898,-884.75 898,-884.75 505,-884.75 505,-884.75 499,-884.75 493,-878.75 493,-872.75 493,-872.75 493,-822.5 493,-822.5 493,-816.5 499,-810.5 505,-810.5"/>
<text xml:space="preserve" text-anchor="middle" x="701.5" y="-869.35" font-family="Inter,Helvetica,Arial" font-size="12.00" fill="#c9d1d9">CAD Domain Passes</text>
</g>
<g id="clust8" class="cluster">
<title>cluster_post</title>
<path fill="#161b22" fill-opacity="0.250980" stroke="#30363d" stroke-dasharray="5,2" d="M975,-163.5C975,-163.5 1157,-163.5 1157,-163.5 1163,-163.5 1169,-169.5 1169,-175.5 1169,-175.5 1169,-579 1169,-579 1169,-585 1163,-591 1157,-591 1157,-591 975,-591 975,-591 969,-591 963,-585 963,-579 963,-579 963,-175.5 963,-175.5 963,-169.5 969,-163.5 975,-163.5"/>
<text xml:space="preserve" text-anchor="middle" x="1066" y="-575.6" font-family="Inter,Helvetica,Arial" font-size="12.00" fill="#c9d1d9">Post&#45;Processing Chain</text>
</g>
<g id="clust9" class="cluster">
<title>cluster_overlay</title>
<path fill="#161b22" fill-opacity="0.250980" stroke="#30363d" stroke-dasharray="5,2" d="M20,-77.75C20,-77.75 360,-77.75 360,-77.75 366,-77.75 372,-83.75 372,-89.75 372,-89.75 372,-225.75 372,-225.75 372,-231.75 366,-237.75 360,-237.75 360,-237.75 20,-237.75 20,-237.75 14,-237.75 8,-231.75 8,-225.75 8,-225.75 8,-89.75 8,-89.75 8,-83.75 14,-77.75 20,-77.75"/>
<text xml:space="preserve" text-anchor="middle" x="190" y="-222.35" font-family="Inter,Helvetica,Arial" font-size="12.00" fill="#c9d1d9">Overlays &amp; Compositor</text>
</g>
<g id="clust10" class="cluster">
<title>cluster_legend</title>
<path fill="#161b22" fill-opacity="0.501961" stroke="#30363d" d="M1715,-439.75C1715,-439.75 1893,-439.75 1893,-439.75 1899,-439.75 1905,-445.75 1905,-451.75 1905,-451.75 1905,-1165.75 1905,-1165.75 1905,-1171.75 1899,-1177.75 1893,-1177.75 1893,-1177.75 1715,-1177.75 1715,-1177.75 1709,-1177.75 1703,-1171.75 1703,-1165.75 1703,-1165.75 1703,-451.75 1703,-451.75 1703,-445.75 1709,-439.75 1715,-439.75"/>
<text xml:space="preserve" text-anchor="middle" x="1804" y="-1163.3" font-family="Inter,Helvetica,Arial" font-size="11.00" fill="#c9d1d9">Legend — Tier2 (Compat Vulkan 1.1+)</text>
</g>
<!-- cpu_sort -->
<g id="node1" class="node">
<title>cpu_sort</title>
<path fill="#238636" stroke="black" stroke-width="1.2" d="M1256.39,-1148.25C1256.39,-1148.25 1129.61,-1148.25 1129.61,-1148.25 1123.61,-1148.25 1117.61,-1142.25 1117.61,-1136.25 1117.61,-1136.25 1117.61,-1124.25 1117.61,-1124.25 1117.61,-1118.25 1123.61,-1112.25 1129.61,-1112.25 1129.61,-1112.25 1256.39,-1112.25 1256.39,-1112.25 1262.39,-1112.25 1268.39,-1118.25 1268.39,-1124.25 1268.39,-1124.25 1268.39,-1136.25 1268.39,-1136.25 1268.39,-1142.25 1262.39,-1148.25 1256.39,-1148.25"/>
<text xml:space="preserve" text-anchor="start" x="1126.25" y="-1130.8" font-family="Inter,Helvetica,Arial" font-weight="bold" font-size="11.00" fill="#ffffff">#— CPU Draw Batch Sort</text>
<text xml:space="preserve" text-anchor="start" x="1128.5" y="-1121.7" font-family="Inter,Helvetica,Arial" font-size="9.00" fill="#ffffff">material sort, MDI indirect buffer</text>
</g>
<!-- vert_mdi -->
<g id="node6" class="node">
<title>vert_mdi</title>
<path fill="#1f6feb" stroke="black" stroke-width="1.2" d="M1352.64,-958.5C1352.64,-958.5 1143.36,-958.5 1143.36,-958.5 1137.36,-958.5 1131.36,-952.5 1131.36,-946.5 1131.36,-946.5 1131.36,-934.5 1131.36,-934.5 1131.36,-928.5 1137.36,-922.5 1143.36,-922.5 1143.36,-922.5 1352.64,-922.5 1352.64,-922.5 1358.64,-922.5 1364.64,-928.5 1364.64,-934.5 1364.64,-934.5 1364.64,-946.5 1364.64,-946.5 1364.64,-952.5 1358.64,-958.5 1352.64,-958.5"/>
<text xml:space="preserve" text-anchor="start" x="1207.5" y="-941.05" font-family="Inter,Helvetica,Arial" font-weight="bold" font-size="11.00" fill="#ffffff">#8 Vertex + MDI</text>
<text xml:space="preserve" text-anchor="start" x="1140" y="-931.95" font-family="Inter,Helvetica,Arial" font-size="9.00" fill="#ffffff">N PSOs (material&#45;sorted), DrawIndexedIndirectCount</text>
</g>
<!-- cpu_sort&#45;&gt;vert_mdi -->
<g id="edge2" class="edge">
<title>cpu_sort&#45;&gt;vert_mdi</title>
<path fill="none" stroke="#484f58" d="M1198.08,-1111.92C1207.91,-1078.34 1229.6,-1004.3 1240.88,-965.81"/>
<polygon fill="#484f58" stroke="#484f58" points="1242.76,-966.86 1242.43,-960.51 1238.73,-965.68 1242.76,-966.86"/>
<text xml:space="preserve" text-anchor="middle" x="1262.56" y="-1041.78" font-family="Inter,Helvetica,Arial" font-size="8.00" fill="#8b949e"> &#160;MDI indirect buffer &#160;</text>
</g>
<!-- cpu_cull -->
<g id="node2" class="node">
<title>cpu_cull</title>
<path fill="#238636" stroke="black" stroke-width="1.2" d="M902.89,-1148.25C902.89,-1148.25 767.11,-1148.25 767.11,-1148.25 761.11,-1148.25 755.11,-1142.25 755.11,-1136.25 755.11,-1136.25 755.11,-1124.25 755.11,-1124.25 755.11,-1118.25 761.11,-1112.25 767.11,-1112.25 767.11,-1112.25 902.89,-1112.25 902.89,-1112.25 908.89,-1112.25 914.89,-1118.25 914.89,-1124.25 914.89,-1124.25 914.89,-1136.25 914.89,-1136.25 914.89,-1142.25 908.89,-1148.25 902.89,-1148.25"/>
<text xml:space="preserve" text-anchor="start" x="769" y="-1130.8" font-family="Inter,Helvetica,Arial" font-weight="bold" font-size="11.00" fill="#ffffff">#— CPU Frustum Culling</text>
<text xml:space="preserve" text-anchor="start" x="763.75" y="-1121.7" font-family="Inter,Helvetica,Arial" font-size="9.00" fill="#ffffff">AABB vs 6 planes (no GPU culling)</text>
</g>
<!-- cpu_bin -->
<g id="node3" class="node">
<title>cpu_bin</title>
<path fill="#238636" stroke="black" stroke-width="1.2" d="M905.39,-1062.5C905.39,-1062.5 766.61,-1062.5 766.61,-1062.5 760.61,-1062.5 754.61,-1056.5 754.61,-1050.5 754.61,-1050.5 754.61,-1038.5 754.61,-1038.5 754.61,-1032.5 760.61,-1026.5 766.61,-1026.5 766.61,-1026.5 905.39,-1026.5 905.39,-1026.5 911.39,-1026.5 917.39,-1032.5 917.39,-1038.5 917.39,-1038.5 917.39,-1050.5 917.39,-1050.5 917.39,-1056.5 911.39,-1062.5 905.39,-1062.5"/>
<text xml:space="preserve" text-anchor="start" x="773.75" y="-1045.05" font-family="Inter,Helvetica,Arial" font-weight="bold" font-size="11.00" fill="#ffffff">#— CPU Macro&#45;Binning</text>
<text xml:space="preserve" text-anchor="start" x="763.25" y="-1035.95" font-family="Inter,Helvetica,Arial" font-size="9.00" fill="#ffffff">classify buckets (no atomic append)</text>
</g>
<!-- cpu_cull&#45;&gt;cpu_bin -->
<g id="edge3" class="edge">
<title>cpu_cull&#45;&gt;cpu_bin</title>
<path fill="none" stroke="#484f58" d="M835.21,-1111.9C835.35,-1099.88 835.54,-1083.71 835.7,-1070.33"/>
<polygon fill="#484f58" stroke="#484f58" points="837.8,-1070.37 835.77,-1064.34 833.6,-1070.32 837.8,-1070.37"/>
<text xml:space="preserve" text-anchor="middle" x="856.9" y="-1084.65" font-family="Inter,Helvetica,Arial" font-size="8.00" fill="#8b949e"> &#160;visible set &#160;</text>
</g>
<!-- cpu_bin&#45;&gt;vert_mdi -->
<g id="edge4" class="edge">
<title>cpu_bin&#45;&gt;vert_mdi</title>
<path fill="none" stroke="#484f58" d="M917.98,-1029.14C987.62,-1016.67 1081.99,-999.04 1119,-988.75 1145.77,-981.31 1174.89,-970.86 1198.68,-961.67"/>
<polygon fill="#484f58" stroke="#484f58" points="1199.32,-963.68 1204.15,-959.54 1197.8,-959.76 1199.32,-963.68"/>
<text xml:space="preserve" text-anchor="middle" x="1108.37" y="-998.9" font-family="Inter,Helvetica,Arial" font-size="8.00" fill="#8b949e"> &#160;bucket lists &#160;</text>
</g>
<!-- oit_insert -->
<g id="node13" class="node">
<title>oit_insert</title>
<path fill="#d29922" stroke="black" stroke-width="1.2" d="M559.89,-311.5C559.89,-311.5 400.11,-311.5 400.11,-311.5 394.11,-311.5 388.11,-305.5 388.11,-299.5 388.11,-299.5 388.11,-287.5 388.11,-287.5 388.11,-281.5 394.11,-275.5 400.11,-275.5 400.11,-275.5 559.89,-275.5 559.89,-275.5 565.89,-275.5 571.89,-281.5 571.89,-287.5 571.89,-287.5 571.89,-299.5 571.89,-299.5 571.89,-305.5 565.89,-311.5 559.89,-311.5"/>
<text xml:space="preserve" text-anchor="start" x="435.38" y="-294.05" font-family="Inter,Helvetica,Arial" font-weight="bold" font-size="11.00" fill="#000000">#25 LL&#45;OIT Insert</text>
<text xml:space="preserve" text-anchor="start" x="396.75" y="-284.95" font-family="Inter,Helvetica,Arial" font-size="9.00" fill="#000000">per&#45;pixel linked list (10M nodes / 160MB)</text>
</g>
<!-- cpu_bin&#45;&gt;oit_insert -->
<g id="edge5" class="edge">
<title>cpu_bin&#45;&gt;oit_insert</title>
<path fill="none" stroke="#484f58" d="M754.14,-1037.59C644.34,-1027.37 463,-1001.42 463,-941.5 463,-941.5 463,-941.5 463,-387.75 463,-364.07 468.37,-337.55 473.08,-318.86"/>
<polygon fill="#484f58" stroke="#484f58" points="475.04,-319.66 474.52,-313.32 470.97,-318.6 475.04,-319.66"/>
<text xml:space="preserve" text-anchor="middle" x="500.88" y="-644.02" font-family="Inter,Helvetica,Arial" font-size="8.00" fill="#8b949e"> &#160;transparent bucket &#160;</text>
</g>
<!-- hlr -->
<g id="node15" class="node">
<title>hlr</title>
<path fill="#39d2c0" stroke="black" stroke-width="1.2" d="M707.14,-854.5C707.14,-854.5 512.86,-854.5 512.86,-854.5 506.86,-854.5 500.86,-848.5 500.86,-842.5 500.86,-842.5 500.86,-830.5 500.86,-830.5 500.86,-824.5 506.86,-818.5 512.86,-818.5 512.86,-818.5 707.14,-818.5 707.14,-818.5 713.14,-818.5 719.14,-824.5 719.14,-830.5 719.14,-830.5 719.14,-842.5 719.14,-842.5 719.14,-848.5 713.14,-854.5 707.14,-854.5"/>
<text xml:space="preserve" text-anchor="start" x="552.62" y="-837.05" font-family="Inter,Helvetica,Arial" font-weight="bold" font-size="11.00" fill="#000000">#28→#30 HLR 4&#45;stage</text>
<text xml:space="preserve" text-anchor="start" x="509.5" y="-827.95" font-family="Inter,Helvetica,Arial" font-size="9.00" fill="#000000">classify → visibility → SDF render (Vertex shader)</text>
</g>
<!-- cpu_bin&#45;&gt;hlr -->
<g id="edge6" class="edge">
<title>cpu_bin&#45;&gt;hlr</title>
<path fill="none" stroke="#484f58" d="M816.73,-1025.94C775.78,-988.61 680.15,-901.44 634.76,-860.07"/>
<polygon fill="#484f58" stroke="#484f58" points="636.19,-858.53 630.34,-856.04 633.36,-861.63 636.19,-858.53"/>
<text xml:space="preserve" text-anchor="middle" x="800.28" y="-937.77" font-family="Inter,Helvetica,Arial" font-size="8.00" fill="#8b949e"> &#160;edge bucket &#160;</text>
</g>
<!-- scene_upload -->
<g id="node4" class="node">
<title>scene_upload</title>
<path fill="#238636" stroke="black" stroke-width="1.2" d="M1080.52,-1148.25C1080.52,-1148.25 951.49,-1148.25 951.49,-1148.25 945.49,-1148.25 939.49,-1142.25 939.49,-1136.25 939.49,-1136.25 939.49,-1124.25 939.49,-1124.25 939.49,-1118.25 945.49,-1112.25 951.49,-1112.25 951.49,-1112.25 1080.52,-1112.25 1080.52,-1112.25 1086.52,-1112.25 1092.52,-1118.25 1092.52,-1124.25 1092.52,-1124.25 1092.52,-1136.25 1092.52,-1136.25 1092.52,-1142.25 1086.52,-1148.25 1080.52,-1148.25"/>
<text xml:space="preserve" text-anchor="start" x="953" y="-1130.8" font-family="Inter,Helvetica,Arial" font-weight="bold" font-size="11.00" fill="#ffffff">#— SceneBuffer Upload</text>
<text xml:space="preserve" text-anchor="start" x="948.12" y="-1121.7" font-family="Inter,Helvetica,Arial" font-size="9.00" fill="#ffffff">dirty GpuInstance[128B] → SSBO</text>
</g>
<!-- depth_pre -->
<g id="node5" class="node">
<title>depth_pre</title>
<path fill="#1f6feb" stroke="black" stroke-width="1.2" d="M1094.02,-958.5C1094.02,-958.5 937.99,-958.5 937.99,-958.5 931.99,-958.5 925.99,-952.5 925.99,-946.5 925.99,-946.5 925.99,-934.5 925.99,-934.5 925.99,-928.5 931.99,-922.5 937.99,-922.5 937.99,-922.5 1094.02,-922.5 1094.02,-922.5 1100.02,-922.5 1106.02,-928.5 1106.02,-934.5 1106.02,-934.5 1106.02,-946.5 1106.02,-946.5 1106.02,-952.5 1100.02,-958.5 1094.02,-958.5"/>
<text xml:space="preserve" text-anchor="start" x="971" y="-941.05" font-family="Inter,Helvetica,Arial" font-weight="bold" font-size="11.00" fill="#ffffff">#1 DepthPrePass</text>
<text xml:space="preserve" text-anchor="start" x="934.62" y="-931.95" font-family="Inter,Helvetica,Arial" font-size="9.00" fill="#ffffff">Vertex shader, D32F Reverse&#45;Z (no HiZ)</text>
</g>
<!-- scene_upload&#45;&gt;depth_pre -->
<g id="edge1" class="edge">
<title>scene_upload&#45;&gt;depth_pre</title>
<path fill="none" stroke="#484f58" d="M1016,-1111.92C1016,-1078.48 1016,-1004.92 1016,-966.29"/>
<polygon fill="#484f58" stroke="#484f58" points="1018.1,-966.57 1016,-960.57 1013.9,-966.57 1018.1,-966.57"/>
<text xml:space="preserve" text-anchor="middle" x="1045.25" y="-1041.78" font-family="Inter,Helvetica,Arial" font-size="8.00" fill="#8b949e"> &#160;GpuInstance[] &#160;</text>
</g>
<!-- gbuf_fwd -->
<g id="node7" class="node">
<title>gbuf_fwd</title>
<path fill="#d29922" stroke="black" stroke-width="1.2" d="M1272.14,-854.5C1272.14,-854.5 975.86,-854.5 975.86,-854.5 969.86,-854.5 963.86,-848.5 963.86,-842.5 963.86,-842.5 963.86,-830.5 963.86,-830.5 963.86,-824.5 969.86,-818.5 975.86,-818.5 975.86,-818.5 1272.14,-818.5 1272.14,-818.5 1278.14,-818.5 1284.14,-824.5 1284.14,-830.5 1284.14,-830.5 1284.14,-842.5 1284.14,-842.5 1284.14,-848.5 1278.14,-854.5 1272.14,-854.5"/>
<text xml:space="preserve" text-anchor="start" x="1070" y="-837.05" font-family="Inter,Helvetica,Arial" font-weight="bold" font-size="11.00" fill="#000000">#11 GBuffer Forward</text>
<text xml:space="preserve" text-anchor="start" x="972.5" y="-827.95" font-family="Inter,Helvetica,Arial" font-size="9.00" fill="#000000">frag DSPBR per&#45;draw → GBuffer MRT (replaces T1 VisBuffer+MatResolve)</text>
</g>
<!-- depth_pre&#45;&gt;gbuf_fwd -->
<g id="edge7" class="edge">
<title>depth_pre&#45;&gt;gbuf_fwd</title>
<path fill="none" stroke="#484f58" d="M1034.32,-922.2C1052.47,-905.05 1080.36,-878.71 1100.22,-859.96"/>
<polygon fill="#484f58" stroke="#484f58" points="1101.57,-861.57 1104.49,-855.93 1098.69,-858.52 1101.57,-861.57"/>
<text xml:space="preserve" text-anchor="middle" x="1089.41" y="-894.9" font-family="Inter,Helvetica,Arial" font-size="8.00" fill="#8b949e"> &#160;D32F depth &#160;</text>
</g>
<!-- depth_pre&#45;&gt;hlr -->
<g id="edge23" class="edge">
<title>depth_pre&#45;&gt;hlr</title>
<path fill="none" stroke="#484f58" d="M940.14,-921.91C883.86,-908.88 816.31,-893.29 813,-892.75 776.86,-886.85 766.61,-893.27 731,-884.75 704.66,-878.45 676.41,-867.67 653.84,-857.99"/>
<polygon fill="#484f58" stroke="#484f58" points="654.75,-856.09 648.41,-855.63 653.07,-859.95 654.75,-856.09"/>
<text xml:space="preserve" text-anchor="middle" x="887.69" y="-894.9" font-family="Inter,Helvetica,Arial" font-size="8.00" fill="#8b949e"> &#160;depth + normals &#160;</text>
</g>
<!-- section -->
<g id="node16" class="node">
<title>section</title>
<path fill="#39d2c0" stroke="black" stroke-width="1.2" d="M890.14,-854.5C890.14,-854.5 755.86,-854.5 755.86,-854.5 749.86,-854.5 743.86,-848.5 743.86,-842.5 743.86,-842.5 743.86,-830.5 743.86,-830.5 743.86,-824.5 749.86,-818.5 755.86,-818.5 755.86,-818.5 890.14,-818.5 890.14,-818.5 896.14,-818.5 902.14,-824.5 902.14,-830.5 902.14,-830.5 902.14,-842.5 902.14,-842.5 902.14,-848.5 896.14,-854.5 890.14,-854.5"/>
<text xml:space="preserve" text-anchor="start" x="776.5" y="-837.05" font-family="Inter,Helvetica,Arial" font-weight="bold" font-size="11.00" fill="#000000">#31 Section Plane</text>
<text xml:space="preserve" text-anchor="start" x="752.5" y="-827.95" font-family="Inter,Helvetica,Arial" font-size="9.00" fill="#000000">clip + cap + ISO 128 hatch (stencil)</text>
</g>
<!-- depth_pre&#45;&gt;section -->
<g id="edge22" class="edge">
<title>depth_pre&#45;&gt;section</title>
<path fill="none" stroke="#484f58" d="M982.73,-922.02C962.31,-911.29 935.63,-897.24 912,-884.75 895.76,-876.16 877.87,-866.67 862.42,-858.46"/>
<polygon fill="#484f58" stroke="#484f58" points="863.57,-856.7 857.29,-855.74 861.6,-860.41 863.57,-856.7"/>
<text xml:space="preserve" text-anchor="middle" x="970.05" y="-894.9" font-family="Inter,Helvetica,Arial" font-size="8.00" fill="#8b949e"> &#160;DepthTarget &#160;</text>
</g>
<!-- vert_mdi&#45;&gt;gbuf_fwd -->
<g id="edge8" class="edge">
<title>vert_mdi&#45;&gt;gbuf_fwd</title>
<path fill="none" stroke="#484f58" d="M1226.68,-921.97C1205.62,-904.64 1173.33,-878.08 1150.6,-859.38"/>
<polygon fill="#484f58" stroke="#484f58" points="1152.17,-857.96 1146.21,-855.77 1149.51,-861.2 1152.17,-857.96"/>
<text xml:space="preserve" text-anchor="middle" x="1220.25" y="-894.9" font-family="Inter,Helvetica,Arial" font-size="8.00" fill="#8b949e"> &#160;triangles &#160;</text>
</g>
<!-- csm -->
<g id="node8" class="node">
<title>csm</title>
<path fill="#1f6feb" stroke="black" stroke-width="1.2" d="M918.51,-750.5C918.51,-750.5 765.49,-750.5 765.49,-750.5 759.49,-750.5 753.49,-744.5 753.49,-738.5 753.49,-738.5 753.49,-726.5 753.49,-726.5 753.49,-720.5 759.49,-714.5 765.49,-714.5 765.49,-714.5 918.51,-714.5 918.51,-714.5 924.51,-714.5 930.51,-720.5 930.51,-726.5 930.51,-726.5 930.51,-738.5 930.51,-738.5 930.51,-744.5 924.51,-750.5 918.51,-750.5"/>
<text xml:space="preserve" text-anchor="start" x="798.5" y="-733.05" font-family="Inter,Helvetica,Arial" font-weight="bold" font-size="11.00" fill="#ffffff">#13 CSM Render</text>
<text xml:space="preserve" text-anchor="start" x="762.12" y="-723.95" font-family="Inter,Helvetica,Arial" font-size="9.00" fill="#ffffff">4&#45;cascade, log split λ=0.7, 10% overlap</text>
</g>
<!-- gbuf_fwd&#45;&gt;csm -->
<g id="edge9" class="edge">
<title>gbuf_fwd&#45;&gt;csm</title>
<path fill="none" stroke="#484f58" d="M1057.89,-817.97C1023.26,-808.18 980.4,-795.07 943,-780.75 922.71,-772.98 900.8,-762.95 882.59,-754.12"/>
<polygon fill="#484f58" stroke="#484f58" points="883.73,-752.34 877.42,-751.6 881.89,-756.12 883.73,-752.34"/>
<text xml:space="preserve" text-anchor="middle" x="1021.96" y="-790.9" font-family="Inter,Helvetica,Arial" font-size="8.00" fill="#8b949e"> &#160;GBuffer.Depth &#160;</text>
</g>
<!-- shadow_atlas -->
<g id="node9" class="node">
<title>shadow_atlas</title>
<path fill="#1f6feb" stroke="black" stroke-width="1.2" d="M1096.52,-750.5C1096.52,-750.5 967.49,-750.5 967.49,-750.5 961.49,-750.5 955.49,-744.5 955.49,-738.5 955.49,-738.5 955.49,-726.5 955.49,-726.5 955.49,-720.5 961.49,-714.5 967.49,-714.5 967.49,-714.5 1096.52,-714.5 1096.52,-714.5 1102.52,-714.5 1108.52,-720.5 1108.52,-726.5 1108.52,-726.5 1108.52,-738.5 1108.52,-738.5 1108.52,-744.5 1102.52,-750.5 1096.52,-750.5"/>
<text xml:space="preserve" text-anchor="start" x="985.5" y="-733.05" font-family="Inter,Helvetica,Arial" font-weight="bold" font-size="11.00" fill="#ffffff">#14 Shadow Atlas</text>
<text xml:space="preserve" text-anchor="start" x="964.12" y="-723.95" font-family="Inter,Helvetica,Arial" font-size="9.00" fill="#ffffff">point/spot LRU tile atlas, ≤8 lights</text>
</g>
<!-- gbuf_fwd&#45;&gt;shadow_atlas -->
<g id="edge10" class="edge">
<title>gbuf_fwd&#45;&gt;shadow_atlas</title>
<path fill="none" stroke="#484f58" d="M1108.39,-818.2C1093.06,-801.2 1069.58,-775.16 1052.69,-756.44"/>
<polygon fill="#484f58" stroke="#484f58" points="1054.27,-755.06 1048.7,-752.01 1051.16,-757.87 1054.27,-755.06"/>
<text xml:space="preserve" text-anchor="middle" x="1118.95" y="-790.9" font-family="Inter,Helvetica,Arial" font-size="8.00" fill="#8b949e"> &#160;GBuffer.Depth &#160;</text>
</g>
<!-- gtao -->
<g id="node10" class="node">
<title>gtao</title>
<path fill="#8957e5" stroke="black" stroke-width="1.2" d="M1577.02,-750.5C1577.02,-750.5 1426.98,-750.5 1426.98,-750.5 1420.98,-750.5 1414.98,-744.5 1414.98,-738.5 1414.98,-738.5 1414.98,-726.5 1414.98,-726.5 1414.98,-720.5 1420.98,-714.5 1426.98,-714.5 1426.98,-714.5 1577.02,-714.5 1577.02,-714.5 1583.02,-714.5 1589.02,-720.5 1589.02,-726.5 1589.02,-726.5 1589.02,-738.5 1589.02,-738.5 1589.02,-744.5 1583.02,-750.5 1577.02,-750.5"/>
<text xml:space="preserve" text-anchor="start" x="1476.12" y="-733.05" font-family="Inter,Helvetica,Arial" font-weight="bold" font-size="11.00" fill="#ffffff">#15 GTAO</text>
<text xml:space="preserve" text-anchor="start" x="1423.62" y="-723.95" font-family="Inter,Helvetica,Arial" font-size="9.00" fill="#ffffff">half&#45;res, 8 dir × 2 horizon (same as T1)</text>
</g>
<!-- gbuf_fwd&#45;&gt;gtao -->
<g id="edge11" class="edge">
<title>gbuf_fwd&#45;&gt;gtao</title>
<path fill="none" stroke="#484f58" d="M1251.36,-817.92C1300.15,-809.32 1355.86,-797.19 1405,-780.75 1425.57,-773.87 1447.37,-763.55 1465.09,-754.3"/>
<polygon fill="#484f58" stroke="#484f58" points="1465.76,-756.32 1470.08,-751.66 1463.8,-752.61 1465.76,-756.32"/>
<text xml:space="preserve" text-anchor="middle" x="1423.01" y="-790.9" font-family="Inter,Helvetica,Arial" font-size="8.00" fill="#8b949e"> &#160;GBuffer.Depth (half&#45;res) &#160;</text>
</g>
<!-- deferred -->
<g id="node11" class="node">
<title>deferred</title>
<path fill="#d29922" stroke="black" stroke-width="1.2" d="M1378.64,-664.75C1378.64,-664.75 1145.36,-664.75 1145.36,-664.75 1139.36,-664.75 1133.36,-658.75 1133.36,-652.75 1133.36,-652.75 1133.36,-640.75 1133.36,-640.75 1133.36,-634.75 1139.36,-628.75 1145.36,-628.75 1145.36,-628.75 1378.64,-628.75 1378.64,-628.75 1384.64,-628.75 1390.64,-634.75 1390.64,-640.75 1390.64,-640.75 1390.64,-652.75 1390.64,-652.75 1390.64,-658.75 1384.64,-664.75 1378.64,-664.75"/>
<text xml:space="preserve" text-anchor="start" x="1206.12" y="-647.3" font-family="Inter,Helvetica,Arial" font-weight="bold" font-size="11.00" fill="#000000">#18 Deferred Resolve</text>
<text xml:space="preserve" text-anchor="start" x="1142" y="-638.2" font-family="Inter,Helvetica,Arial" font-size="9.00" fill="#000000">fullscreen&#45;tri, CPU&#45;sorted light UBO ≤256, no clustered grid</text>
</g>
<!-- gbuf_fwd&#45;&gt;deferred -->
<g id="edge12" class="edge">
<title>gbuf_fwd&#45;&gt;deferred</title>
<path fill="none" stroke="#484f58" d="M1284.67,-827.74C1415.55,-819.7 1582.03,-804.88 1603,-780.75 1624.65,-755.84 1624.26,-731.74 1603,-706.5 1576.61,-675.17 1481.55,-660.55 1398.49,-653.72"/>
<polygon fill="#484f58" stroke="#484f58" points="1398.66,-651.63 1392.51,-653.25 1398.32,-655.82 1398.66,-651.63"/>
<text xml:space="preserve" text-anchor="middle" x="1647.22" y="-729.77" font-family="Inter,Helvetica,Arial" font-size="8.00" fill="#8b949e"> &#160;GBuffer MRT &#160;</text>
</g>
<!-- csm&#45;&gt;deferred -->
<g id="edge13" class="edge">
<title>csm&#45;&gt;deferred</title>
<path fill="none" stroke="#484f58" d="M910.6,-713.93C921.41,-711.33 932.49,-708.77 943,-706.5 1011.5,-691.73 1088.78,-677.44 1150.12,-666.65"/>
<polygon fill="#484f58" stroke="#484f58" points="1150.49,-668.71 1156.03,-665.61 1149.76,-664.58 1150.49,-668.71"/>
<text xml:space="preserve" text-anchor="middle" x="1079.03" y="-686.9" font-family="Inter,Helvetica,Arial" font-size="8.00" fill="#8b949e"> &#160;CSM cascades &#160;</text>
</g>
<!-- shadow_atlas&#45;&gt;deferred -->
<g id="edge14" class="edge">
<title>shadow_atlas&#45;&gt;deferred</title>
<path fill="none" stroke="#484f58" d="M1080.22,-713.94C1117.17,-700.49 1168.2,-681.9 1206.79,-667.85"/>
<polygon fill="#484f58" stroke="#484f58" points="1207.51,-669.83 1212.43,-665.8 1206.07,-665.88 1207.51,-669.83"/>
<text xml:space="preserve" text-anchor="middle" x="1181.65" y="-686.9" font-family="Inter,Helvetica,Arial" font-size="8.00" fill="#8b949e"> &#160;shadow atlas &#160;</text>
</g>
<!-- gtao&#45;&gt;deferred -->
<g id="edge15" class="edge">
<title>gtao&#45;&gt;deferred</title>
<path fill="none" stroke="#484f58" d="M1451.69,-713.94C1412.97,-700.43 1359.43,-681.75 1319.11,-667.68"/>
<polygon fill="#484f58" stroke="#484f58" points="1320.03,-665.78 1313.67,-665.78 1318.65,-669.74 1320.03,-665.78"/>
<text xml:space="preserve" text-anchor="middle" x="1416.95" y="-686.9" font-family="Inter,Helvetica,Arial" font-size="8.00" fill="#8b949e"> &#160;AO buffer R8 &#160;</text>
</g>
<!-- bloom -->
<g id="node17" class="node">
<title>bloom</title>
<path fill="#bc8cff" stroke="black" stroke-width="1.2" d="M1147.14,-560.75C1147.14,-560.75 1042.86,-560.75 1042.86,-560.75 1036.86,-560.75 1030.86,-554.75 1030.86,-548.75 1030.86,-548.75 1030.86,-536.75 1030.86,-536.75 1030.86,-530.75 1036.86,-524.75 1042.86,-524.75 1042.86,-524.75 1147.14,-524.75 1147.14,-524.75 1153.14,-524.75 1159.14,-530.75 1159.14,-536.75 1159.14,-536.75 1159.14,-548.75 1159.14,-548.75 1159.14,-554.75 1153.14,-560.75 1147.14,-560.75"/>
<text xml:space="preserve" text-anchor="start" x="1067.25" y="-543.3" font-family="Inter,Helvetica,Arial" font-weight="bold" font-size="11.00" fill="#000000">#49 Bloom</text>
<text xml:space="preserve" text-anchor="start" x="1039.5" y="-534.2" font-family="Inter,Helvetica,Arial" font-size="9.00" fill="#000000">6&#45;level Gaussian, lum &gt; 1.0</text>
</g>
<!-- deferred&#45;&gt;bloom -->
<g id="edge17" class="edge">
<title>deferred&#45;&gt;bloom</title>
<path fill="none" stroke="#484f58" d="M1233.29,-628.22C1204.65,-610.72 1160.6,-583.82 1129.94,-565.09"/>
<polygon fill="#484f58" stroke="#484f58" points="1131.12,-563.35 1124.9,-562.01 1128.93,-566.93 1131.12,-563.35"/>
<text xml:space="preserve" text-anchor="middle" x="1231.37" y="-601.15" font-family="Inter,Helvetica,Arial" font-size="8.00" fill="#8b949e"> &#160;HDR RGBA16F &#160;</text>
</g>
<!-- ibl -->
<g id="node12" class="node">
<title>ibl</title>
<path fill="#8b949e" stroke="black" stroke-width="1.2" stroke-dasharray="5,2" d="M1352.77,-750.5C1352.77,-750.5 1171.23,-750.5 1171.23,-750.5 1165.23,-750.5 1159.23,-744.5 1159.23,-738.5 1159.23,-738.5 1159.23,-726.5 1159.23,-726.5 1159.23,-720.5 1165.23,-714.5 1171.23,-714.5 1171.23,-714.5 1352.77,-714.5 1352.77,-714.5 1358.77,-714.5 1364.77,-720.5 1364.77,-726.5 1364.77,-726.5 1364.77,-738.5 1364.77,-738.5 1364.77,-744.5 1358.77,-750.5 1352.77,-750.5"/>
<text xml:space="preserve" text-anchor="start" x="1209.12" y="-733.05" font-family="Inter,Helvetica,Arial" font-weight="bold" font-size="11.00" fill="#000000">#19 IBL Precompute</text>
<text xml:space="preserve" text-anchor="start" x="1167.88" y="-723.95" font-family="Inter,Helvetica,Arial" font-size="9.00" fill="#000000">one&#45;time: equirect→cubemap+SH+BRDF LUT</text>
</g>
<!-- ibl&#45;&gt;deferred -->
<g id="edge16" class="edge">
<title>ibl&#45;&gt;deferred</title>
<path fill="none" stroke="#484f58" stroke-dasharray="5,2" d="M1262,-714.15C1262,-702.13 1262,-685.96 1262,-672.58"/>
<polygon fill="#484f58" stroke="#484f58" points="1264.1,-672.59 1262,-666.59 1259.9,-672.59 1264.1,-672.59"/>
<text xml:space="preserve" text-anchor="middle" x="1304.38" y="-686.9" font-family="Inter,Helvetica,Arial" font-size="8.00" fill="#8b949e"> &#160;cubemap+SH+BRDF &#160;</text>
</g>
<!-- oit_resolve -->
<g id="node14" class="node">
<title>oit_resolve</title>
<path fill="#8957e5" stroke="black" stroke-width="1.2" d="M548.76,-207.5C548.76,-207.5 403.24,-207.5 403.24,-207.5 397.24,-207.5 391.24,-201.5 391.24,-195.5 391.24,-195.5 391.24,-183.5 391.24,-183.5 391.24,-177.5 397.24,-171.5 403.24,-171.5 403.24,-171.5 548.76,-171.5 548.76,-171.5 554.76,-171.5 560.76,-177.5 560.76,-183.5 560.76,-183.5 560.76,-195.5 560.76,-195.5 560.76,-201.5 554.76,-207.5 548.76,-207.5"/>
<text xml:space="preserve" text-anchor="start" x="425.38" y="-190.05" font-family="Inter,Helvetica,Arial" font-weight="bold" font-size="11.00" fill="#ffffff">#26 LL&#45;OIT Resolve</text>
<text xml:space="preserve" text-anchor="start" x="399.88" y="-180.95" font-family="Inter,Helvetica,Arial" font-size="9.00" fill="#ffffff">insertion sort ≤16 layers → RGBA16F</text>
</g>
<!-- oit_insert&#45;&gt;oit_resolve -->
<g id="edge18" class="edge">
<title>oit_insert&#45;&gt;oit_resolve</title>
<path fill="none" stroke="#484f58" d="M479.32,-275.2C478.67,-258.64 477.69,-233.5 476.96,-214.91"/>
<polygon fill="#484f58" stroke="#484f58" points="479.07,-215.31 476.74,-209.4 474.88,-215.48 479.07,-215.31"/>
<text xml:space="preserve" text-anchor="middle" x="521.98" y="-247.9" font-family="Inter,Helvetica,Arial" font-size="8.00" fill="#8b949e"> &#160;node pool + head ptrs &#160;</text>
</g>
<!-- compositor -->
<g id="node24" class="node">
<title>compositor</title>
<path fill="#d29922" stroke="black" stroke-width="1.2" d="M352.01,-121.75C352.01,-121.75 213.99,-121.75 213.99,-121.75 207.99,-121.75 201.99,-115.75 201.99,-109.75 201.99,-109.75 201.99,-97.75 201.99,-97.75 201.99,-91.75 207.99,-85.75 213.99,-85.75 213.99,-85.75 352.01,-85.75 352.01,-85.75 358.01,-85.75 364.01,-91.75 364.01,-97.75 364.01,-97.75 364.01,-109.75 364.01,-109.75 364.01,-115.75 358.01,-121.75 352.01,-121.75"/>
<text xml:space="preserve" text-anchor="start" x="210.62" y="-104.3" font-family="Inter,Helvetica,Arial" font-weight="bold" font-size="11.00" fill="#000000">#65 LayerStack Compositor</text>
<text xml:space="preserve" text-anchor="start" x="220.75" y="-95.2" font-family="Inter,Helvetica,Arial" font-size="9.00" fill="#000000">6&#45;layer alpha&#45;blend → final FB</text>
</g>
<!-- oit_resolve&#45;&gt;compositor -->
<g id="edge19" class="edge">
<title>oit_resolve&#45;&gt;compositor</title>
<path fill="none" stroke="#484f58" d="M435.54,-170.94C404.79,-157.6 362.42,-139.21 330.13,-125.2"/>
<polygon fill="#484f58" stroke="#484f58" points="331.13,-123.35 324.79,-122.89 329.46,-127.2 331.13,-123.35"/>
<text xml:space="preserve" text-anchor="middle" x="420.54" y="-143.9" font-family="Inter,Helvetica,Arial" font-size="8.00" fill="#8b949e"> &#160;sorted RGBA16F &#160;</text>
</g>
<!-- hlr&#45;&gt;compositor -->
<g id="edge20" class="edge">
<title>hlr&#45;&gt;compositor</title>
<path fill="none" stroke="#484f58" d="M610,-818.17C610,-797.88 610,-763.25 610,-733.5 610,-733.5 610,-733.5 610,-188.5 610,-139.17 468.56,-118.5 371.73,-110.13"/>
<polygon fill="#484f58" stroke="#484f58" points="371.91,-108.04 365.76,-109.63 371.56,-112.22 371.91,-108.04"/>
<text xml:space="preserve" text-anchor="middle" x="637.38" y="-463.02" font-family="Inter,Helvetica,Arial" font-size="8.00" fill="#8b949e"> &#160;edge overlay &#160;</text>
</g>
<!-- section&#45;&gt;compositor -->
<g id="edge21" class="edge">
<title>section&#45;&gt;compositor</title>
<path fill="none" stroke="#484f58" d="M783.7,-817.92C752.82,-801.12 715,-772.57 715,-733.5 715,-733.5 715,-733.5 715,-188.5 715,-119.26 498.42,-106.08 371.96,-104.29"/>
<polygon fill="#484f58" stroke="#484f58" points="372.05,-102.19 366.02,-104.22 372,-106.39 372.05,-102.19"/>
<text xml:space="preserve" text-anchor="middle" x="744.25" y="-463.02" font-family="Inter,Helvetica,Arial" font-size="8.00" fill="#8b949e"> &#160;section output &#160;</text>
</g>
<!-- tonemap -->
<g id="node18" class="node">
<title>tonemap</title>
<path fill="#bc8cff" stroke="black" stroke-width="1.2" d="M1147.39,-483.75C1147.39,-483.75 1008.61,-483.75 1008.61,-483.75 1002.61,-483.75 996.61,-477.75 996.61,-471.75 996.61,-471.75 996.61,-459.75 996.61,-459.75 996.61,-453.75 1002.61,-447.75 1008.61,-447.75 1008.61,-447.75 1147.39,-447.75 1147.39,-447.75 1153.39,-447.75 1159.39,-453.75 1159.39,-459.75 1159.39,-459.75 1159.39,-471.75 1159.39,-471.75 1159.39,-477.75 1153.39,-483.75 1147.39,-483.75"/>
<text xml:space="preserve" text-anchor="start" x="1030.75" y="-466.3" font-family="Inter,Helvetica,Arial" font-weight="bold" font-size="11.00" fill="#000000">#52 Tone Mapping</text>
<text xml:space="preserve" text-anchor="start" x="1005.25" y="-457.2" font-family="Inter,Helvetica,Arial" font-size="9.00" fill="#000000">ACES/AgX/Khronos + vignette + CA</text>
</g>
<!-- bloom&#45;&gt;tonemap -->
<g id="edge24" class="edge">
<title>bloom&#45;&gt;tonemap</title>
<path fill="none" stroke="#484f58" d="M1091.06,-524.35C1088.84,-514.58 1086.04,-502.22 1083.6,-491.46"/>
<polygon fill="#484f58" stroke="#484f58" points="1085.69,-491.17 1082.31,-485.79 1081.59,-492.1 1085.69,-491.17"/>
</g>
<!-- taa -->
<g id="node19" class="node">
<title>taa</title>
<path fill="#8957e5" stroke="black" stroke-width="1.2" d="M1147.77,-406.75C1147.77,-406.75 990.24,-406.75 990.24,-406.75 984.24,-406.75 978.24,-400.75 978.24,-394.75 978.24,-394.75 978.24,-382.75 978.24,-382.75 978.24,-376.75 984.24,-370.75 990.24,-370.75 990.24,-370.75 1147.77,-370.75 1147.77,-370.75 1153.77,-370.75 1159.77,-376.75 1159.77,-382.75 1159.77,-382.75 1159.77,-394.75 1159.77,-394.75 1159.77,-400.75 1153.77,-406.75 1147.77,-406.75"/>
<text xml:space="preserve" text-anchor="start" x="1047.25" y="-389.3" font-family="Inter,Helvetica,Arial" font-weight="bold" font-size="11.00" fill="#ffffff">#53 TAA</text>
<text xml:space="preserve" text-anchor="start" x="986.88" y="-380.2" font-family="Inter,Helvetica,Arial" font-size="9.00" fill="#ffffff">Halton jitter, YCoCg clamp, motion reject</text>
</g>
<!-- tonemap&#45;&gt;taa -->
<g id="edge25" class="edge">
<title>tonemap&#45;&gt;taa</title>
<path fill="none" stroke="#484f58" d="M1075.91,-447.35C1074.75,-437.67 1073.28,-425.46 1072,-414.77"/>
<polygon fill="#484f58" stroke="#484f58" points="1074.09,-414.52 1071.29,-408.81 1069.92,-415.02 1074.09,-414.52"/>
</g>
<!-- fxaa -->
<g id="node20" class="node">
<title>fxaa</title>
<path fill="#d29922" stroke="black" stroke-width="1.2" d="M1149.27,-311.5C1149.27,-311.5 982.74,-311.5 982.74,-311.5 976.74,-311.5 970.74,-305.5 970.74,-299.5 970.74,-299.5 970.74,-287.5 970.74,-287.5 970.74,-281.5 976.74,-275.5 982.74,-275.5 982.74,-275.5 1149.27,-275.5 1149.27,-275.5 1155.27,-275.5 1161.27,-281.5 1161.27,-287.5 1161.27,-287.5 1161.27,-299.5 1161.27,-299.5 1161.27,-305.5 1155.27,-311.5 1149.27,-311.5"/>
<text xml:space="preserve" text-anchor="start" x="1012.38" y="-294.05" font-family="Inter,Helvetica,Arial" font-weight="bold" font-size="11.00" fill="#000000">#55 FXAA / MSAA 4x</text>
<text xml:space="preserve" text-anchor="start" x="979.38" y="-284.95" font-family="Inter,Helvetica,Arial" font-size="9.00" fill="#000000">replaces FSR/DLSS (no temporal upscale)</text>
</g>
<!-- taa&#45;&gt;fxaa -->
<g id="edge26" class="edge">
<title>taa&#45;&gt;fxaa</title>
<path fill="none" stroke="#484f58" d="M1068.44,-370.21C1067.97,-355.88 1067.32,-335.46 1066.8,-319.43"/>
<polygon fill="#484f58" stroke="#484f58" points="1068.9,-319.4 1066.61,-313.47 1064.7,-319.54 1068.9,-319.4"/>
</g>
<!-- cas -->
<g id="node21" class="node">
<title>cas</title>
<path fill="#8957e5" stroke="black" stroke-width="1.2" d="M1088.77,-207.5C1088.77,-207.5 1003.24,-207.5 1003.24,-207.5 997.24,-207.5 991.24,-201.5 991.24,-195.5 991.24,-195.5 991.24,-183.5 991.24,-183.5 991.24,-177.5 997.24,-171.5 1003.24,-171.5 1003.24,-171.5 1088.77,-171.5 1088.77,-171.5 1094.77,-171.5 1100.77,-177.5 1100.77,-183.5 1100.77,-183.5 1100.77,-195.5 1100.77,-195.5 1100.77,-201.5 1094.77,-207.5 1088.77,-207.5"/>
<text xml:space="preserve" text-anchor="start" x="999.88" y="-190.05" font-family="Inter,Helvetica,Arial" font-weight="bold" font-size="11.00" fill="#ffffff">#56 CAS Sharpen</text>
<text xml:space="preserve" text-anchor="start" x="1004" y="-180.95" font-family="Inter,Helvetica,Arial" font-size="9.00" fill="#ffffff">AMD FidelityFX CAS</text>
</g>
<!-- fxaa&#45;&gt;cas -->
<g id="edge27" class="edge">
<title>fxaa&#45;&gt;cas</title>
<path fill="none" stroke="#484f58" d="M1062.61,-275.2C1059.36,-258.64 1054.43,-233.5 1050.79,-214.91"/>
<polygon fill="#484f58" stroke="#484f58" points="1052.92,-214.86 1049.7,-209.37 1048.79,-215.67 1052.92,-214.86"/>
</g>
<!-- cas&#45;&gt;compositor -->
<g id="edge28" class="edge">
<title>cas&#45;&gt;compositor</title>
<path fill="none" stroke="#484f58" d="M990.92,-179.11C928.69,-168.76 824.32,-152.21 734,-141.75 608.44,-127.21 462.56,-116.33 371.5,-110.25"/>
<polygon fill="#484f58" stroke="#484f58" points="371.86,-108.17 365.74,-109.87 371.58,-112.37 371.86,-108.17"/>
<text xml:space="preserve" text-anchor="middle" x="837.08" y="-143.9" font-family="Inter,Helvetica,Arial" font-size="8.00" fill="#8b949e"> &#160;scene layer color &#160;</text>
</g>
<!-- overlays -->
<g id="node22" class="node">
<title>overlays</title>
<path fill="#1f6feb" stroke="black" stroke-width="1.2" d="M183.64,-207.5C183.64,-207.5 28.36,-207.5 28.36,-207.5 22.36,-207.5 16.36,-201.5 16.36,-195.5 16.36,-195.5 16.36,-183.5 16.36,-183.5 16.36,-177.5 22.36,-171.5 28.36,-171.5 28.36,-171.5 183.64,-171.5 183.64,-171.5 189.64,-171.5 195.64,-177.5 195.64,-183.5 195.64,-183.5 195.64,-195.5 195.64,-195.5 195.64,-201.5 189.64,-207.5 183.64,-207.5"/>
<text xml:space="preserve" text-anchor="start" x="60.62" y="-190.05" font-family="Inter,Helvetica,Arial" font-weight="bold" font-size="11.00" fill="#ffffff">#60–#64 Overlays</text>
<text xml:space="preserve" text-anchor="start" x="25" y="-180.95" font-family="Inter,Helvetica,Arial" font-size="9.00" fill="#ffffff">Gizmo, Grid, ViewCube, Snap, Measure</text>
</g>
<!-- overlays&#45;&gt;compositor -->
<g id="edge29" class="edge">
<title>overlays&#45;&gt;compositor</title>
<path fill="none" stroke="#484f58" d="M143.11,-170.94C171.19,-157.65 209.84,-139.37 239.4,-125.38"/>
<polygon fill="#484f58" stroke="#484f58" points="240.05,-127.4 244.58,-122.93 238.25,-123.6 240.05,-127.4"/>
<text xml:space="preserve" text-anchor="middle" x="226.81" y="-143.9" font-family="Inter,Helvetica,Arial" font-size="8.00" fill="#8b949e"> &#160;overlay layer &#160;</text>
</g>
<!-- pmi -->
<g id="node23" class="node">
<title>pmi</title>
<path fill="#1f6feb" stroke="black" stroke-width="1.2" d="M351.64,-207.5C351.64,-207.5 232.36,-207.5 232.36,-207.5 226.36,-207.5 220.36,-201.5 220.36,-195.5 220.36,-195.5 220.36,-183.5 220.36,-183.5 220.36,-177.5 226.36,-171.5 232.36,-171.5 232.36,-171.5 351.64,-171.5 351.64,-171.5 357.64,-171.5 363.64,-177.5 363.64,-183.5 363.64,-183.5 363.64,-195.5 363.64,-195.5 363.64,-201.5 357.64,-207.5 351.64,-207.5"/>
<text xml:space="preserve" text-anchor="start" x="251.12" y="-190.05" font-family="Inter,Helvetica,Arial" font-weight="bold" font-size="11.00" fill="#ffffff">#45 PMI Render</text>
<text xml:space="preserve" text-anchor="start" x="229" y="-180.95" font-family="Inter,Helvetica,Arial" font-size="9.00" fill="#ffffff">MSDF text + leaders + symbols</text>
</g>
<!-- pmi&#45;&gt;compositor -->
<g id="edge30" class="edge">
<title>pmi&#45;&gt;compositor</title>
<path fill="none" stroke="#484f58" d="M290.14,-171.15C288.83,-159.02 287.07,-142.65 285.63,-129.21"/>
<polygon fill="#484f58" stroke="#484f58" points="287.75,-129.33 285.02,-123.59 283.58,-129.78 287.75,-129.33"/>
<text xml:space="preserve" text-anchor="middle" x="320.77" y="-143.9" font-family="Inter,Helvetica,Arial" font-size="8.00" fill="#8b949e"> &#160;annotation layer &#160;</text>
</g>
<!-- present -->
<g id="node25" class="node">
<title>present</title>
<path fill="#3fb950" stroke="black" stroke-width="1.2" d="M395.51,-36C395.51,-36 170.48,-36 170.48,-36 164.48,-36 158.48,-30 158.48,-24 158.48,-24 158.48,-12 158.48,-12 158.48,-6 164.48,0 170.48,0 170.48,0 395.51,0 395.51,0 401.51,0 407.51,-6 407.51,-12 407.51,-12 407.51,-24 407.51,-24 407.51,-30 401.51,-36 395.51,-36"/>
<text xml:space="preserve" text-anchor="start" x="262.75" y="-18.55" font-family="Inter,Helvetica,Arial" font-weight="bold" font-size="11.00" fill="#000000">Present</text>
<text xml:space="preserve" text-anchor="start" x="167.12" y="-9.45" font-family="Inter,Helvetica,Arial" font-size="9.00" fill="#000000">vkQueuePresentKHR (single queue, fence frame pacing)</text>
</g>
<!-- compositor&#45;&gt;present -->
<g id="edge31" class="edge">
<title>compositor&#45;&gt;present</title>
<path fill="none" stroke="#484f58" d="M283,-85.4C283,-73.38 283,-57.21 283,-43.83"/>
<polygon fill="#484f58" stroke="#484f58" points="285.1,-43.84 283,-37.84 280.9,-43.84 285.1,-43.84"/>
<text xml:space="preserve" text-anchor="middle" x="316.75" y="-58.15" font-family="Inter,Helvetica,Arial" font-size="8.00" fill="#8b949e"> &#160;final framebuffer &#160;</text>
</g>
<!-- leg_cpu -->
<g id="node26" class="node">
<title>leg_cpu</title>
<path fill="#238636" stroke="black" stroke-width="1.2" d="M1826.89,-1148.25C1826.89,-1148.25 1781.11,-1148.25 1781.11,-1148.25 1775.11,-1148.25 1769.11,-1142.25 1769.11,-1136.25 1769.11,-1136.25 1769.11,-1124.25 1769.11,-1124.25 1769.11,-1118.25 1775.11,-1112.25 1781.11,-1112.25 1781.11,-1112.25 1826.89,-1112.25 1826.89,-1112.25 1832.89,-1112.25 1838.89,-1118.25 1838.89,-1124.25 1838.89,-1124.25 1838.89,-1136.25 1838.89,-1136.25 1838.89,-1142.25 1832.89,-1148.25 1826.89,-1148.25"/>
<text xml:space="preserve" text-anchor="start" x="1777.75" y="-1127.55" font-family="Inter,Helvetica,Arial" font-weight="bold" font-size="11.00" fill="#ffffff">CPU Pass</text>
</g>
<!-- leg_gfx -->
<g id="node27" class="node">
<title>leg_gfx</title>
<path fill="#1f6feb" stroke="black" stroke-width="1.2" d="M1838.52,-1062.5C1838.52,-1062.5 1769.48,-1062.5 1769.48,-1062.5 1763.48,-1062.5 1757.48,-1056.5 1757.48,-1050.5 1757.48,-1050.5 1757.48,-1038.5 1757.48,-1038.5 1757.48,-1032.5 1763.48,-1026.5 1769.48,-1026.5 1769.48,-1026.5 1838.52,-1026.5 1838.52,-1026.5 1844.52,-1026.5 1850.52,-1032.5 1850.52,-1038.5 1850.52,-1038.5 1850.52,-1050.5 1850.52,-1050.5 1850.52,-1056.5 1844.52,-1062.5 1838.52,-1062.5"/>
<text xml:space="preserve" text-anchor="start" x="1766.12" y="-1041.8" font-family="Inter,Helvetica,Arial" font-weight="bold" font-size="11.00" fill="#ffffff">Graphics Pass</text>
</g>
<!-- leg_cpu&#45;&gt;leg_gfx -->
<!-- leg_compute -->
<g id="node28" class="node">
<title>leg_compute</title>
<path fill="#8957e5" stroke="black" stroke-width="1.2" d="M1838.89,-958.5C1838.89,-958.5 1769.11,-958.5 1769.11,-958.5 1763.11,-958.5 1757.11,-952.5 1757.11,-946.5 1757.11,-946.5 1757.11,-934.5 1757.11,-934.5 1757.11,-928.5 1763.11,-922.5 1769.11,-922.5 1769.11,-922.5 1838.89,-922.5 1838.89,-922.5 1844.89,-922.5 1850.89,-928.5 1850.89,-934.5 1850.89,-934.5 1850.89,-946.5 1850.89,-946.5 1850.89,-952.5 1844.89,-958.5 1838.89,-958.5"/>
<text xml:space="preserve" text-anchor="start" x="1765.75" y="-937.8" font-family="Inter,Helvetica,Arial" font-weight="bold" font-size="11.00" fill="#ffffff">Compute Pass</text>
</g>
<!-- leg_gfx&#45;&gt;leg_compute -->
<!-- leg_frag -->
<g id="node29" class="node">
<title>leg_frag</title>
<path fill="#d29922" stroke="black" stroke-width="1.2" d="M1840.02,-854.5C1840.02,-854.5 1767.98,-854.5 1767.98,-854.5 1761.98,-854.5 1755.98,-848.5 1755.98,-842.5 1755.98,-842.5 1755.98,-830.5 1755.98,-830.5 1755.98,-824.5 1761.98,-818.5 1767.98,-818.5 1767.98,-818.5 1840.02,-818.5 1840.02,-818.5 1846.02,-818.5 1852.02,-824.5 1852.02,-830.5 1852.02,-830.5 1852.02,-842.5 1852.02,-842.5 1852.02,-848.5 1846.02,-854.5 1840.02,-854.5"/>
<text xml:space="preserve" text-anchor="start" x="1764.62" y="-833.8" font-family="Inter,Helvetica,Arial" font-weight="bold" font-size="11.00" fill="#000000">Fragment Pass</text>
</g>
<!-- leg_compute&#45;&gt;leg_frag -->
<!-- leg_post -->
<g id="node30" class="node">
<title>leg_post</title>
<path fill="#bc8cff" stroke="black" stroke-width="1.2" d="M1844.14,-750.5C1844.14,-750.5 1763.86,-750.5 1763.86,-750.5 1757.86,-750.5 1751.86,-744.5 1751.86,-738.5 1751.86,-738.5 1751.86,-726.5 1751.86,-726.5 1751.86,-720.5 1757.86,-714.5 1763.86,-714.5 1763.86,-714.5 1844.14,-714.5 1844.14,-714.5 1850.14,-714.5 1856.14,-720.5 1856.14,-726.5 1856.14,-726.5 1856.14,-738.5 1856.14,-738.5 1856.14,-744.5 1850.14,-750.5 1844.14,-750.5"/>
<text xml:space="preserve" text-anchor="start" x="1760.5" y="-729.8" font-family="Inter,Helvetica,Arial" font-weight="bold" font-size="11.00" fill="#000000">Post&#45;Processing</text>
</g>
<!-- leg_frag&#45;&gt;leg_post -->
<!-- leg_cad -->
<g id="node31" class="node">
<title>leg_cad</title>
<path fill="#39d2c0" stroke="black" stroke-width="1.2" d="M1834.77,-664.75C1834.77,-664.75 1773.23,-664.75 1773.23,-664.75 1767.23,-664.75 1761.23,-658.75 1761.23,-652.75 1761.23,-652.75 1761.23,-640.75 1761.23,-640.75 1761.23,-634.75 1767.23,-628.75 1773.23,-628.75 1773.23,-628.75 1834.77,-628.75 1834.77,-628.75 1840.77,-628.75 1846.77,-634.75 1846.77,-640.75 1846.77,-640.75 1846.77,-652.75 1846.77,-652.75 1846.77,-658.75 1840.77,-664.75 1834.77,-664.75"/>
<text xml:space="preserve" text-anchor="start" x="1769.88" y="-644.05" font-family="Inter,Helvetica,Arial" font-weight="bold" font-size="11.00" fill="#000000">CAD Domain</text>
</g>
<!-- leg_post&#45;&gt;leg_cad -->
<!-- leg_opt -->
<g id="node32" class="node">
<title>leg_opt</title>
<path fill="#8b949e" stroke="black" stroke-width="1.2" stroke-dasharray="5,2" d="M1857.64,-560.75C1857.64,-560.75 1750.36,-560.75 1750.36,-560.75 1744.36,-560.75 1738.36,-554.75 1738.36,-548.75 1738.36,-548.75 1738.36,-536.75 1738.36,-536.75 1738.36,-530.75 1744.36,-524.75 1750.36,-524.75 1750.36,-524.75 1857.64,-524.75 1857.64,-524.75 1863.64,-524.75 1869.64,-530.75 1869.64,-536.75 1869.64,-536.75 1869.64,-548.75 1869.64,-548.75 1869.64,-554.75 1863.64,-560.75 1857.64,-560.75"/>
<text xml:space="preserve" text-anchor="start" x="1747" y="-540.05" font-family="Inter,Helvetica,Arial" font-weight="bold" font-size="11.00" fill="#000000">Optional / Conditional</text>
</g>
<!-- leg_cad&#45;&gt;leg_opt -->
<!-- leg_present -->
<g id="node33" class="node">
<title>leg_present</title>
<path fill="#3fb950" stroke="black" stroke-width="1.2" d="M1820.89,-483.75C1820.89,-483.75 1787.11,-483.75 1787.11,-483.75 1781.11,-483.75 1775.11,-477.75 1775.11,-471.75 1775.11,-471.75 1775.11,-459.75 1775.11,-459.75 1775.11,-453.75 1781.11,-447.75 1787.11,-447.75 1787.11,-447.75 1820.89,-447.75 1820.89,-447.75 1826.89,-447.75 1832.89,-453.75 1832.89,-459.75 1832.89,-459.75 1832.89,-471.75 1832.89,-471.75 1832.89,-477.75 1826.89,-483.75 1820.89,-483.75"/>
<text xml:space="preserve" text-anchor="start" x="1783.75" y="-463.05" font-family="Inter,Helvetica,Arial" font-weight="bold" font-size="11.00" fill="#000000">Present</text>
</g>
<!-- leg_opt&#45;&gt;leg_present -->
</g>
</svg>
